<svg xmlns="http://www.w3.org/2000/svg" version="1.1" viewBox="0 0 1080 1080" width="1080" height="1080">
<defs/><!--ITEM: Illustration background 1--><g transform="translate(98.0 167.0) rotate(0.0 415.0 411.0)  scale(1.0375 1.0373548712771328)"><svg width="800.0" height="792.4" viewBox="0.0 0.0 800.0 792.4"><path d="m800 490.7c0-21.5-4.5-42.8-13.4-62.4-23.8-52.9-29.1-119.1-19-166.2.5-2.2 1-4.3 1.5-6.5l.1-.3c.3-1.4.6-2.8.8-4.2 20.2-107.1-50.2-210.3-157.3-230.5-11.9-2.2-24-3.4-36.2-3.4-2.9 0-5.7.1-8.5.2-.2 0-.5 0-.8 0h-.7c-.2 0-.2 0-.4 0h-.2c-2.6.2-5.2.3-7.8.5-36.4 2.2-71.1-.5-109.8-11-17.3-4.6-35.2-7-53.2-7-84.9 0-157.7 51.6-188.8 125.2-1.2 2.9-2.4 5.9-3.5 8.9-17.3 38.9-53 55.7-88.4 65.9-49.4 13-86.3 58.9-85.4 112 .3 19.3 5.5 38.2 15.2 54.8.3.6.6 1.2 1 1.8l.1.1c.8 1.3 1.6 2.6 2.5 3.9 10.3 18.7 4.8 45.1-12.2 72.7-67.2 105.2-36.4 244.7 68.7 311.8 69.9 44.6 158.7 47.3 231.2 6.9 32.1-17.8 69.2-19.9 96.7-7.8l.2.1c93.7 38.9 201.5.5 249.5-88.7 11.9-20.2 24.3-33.6 45-47.3 1.8-1.1 3.5-2.2 5.2-3.3h.1c.4-.2.8-.5 1.2-.8 41.7-28.1 66.7-75.1 66.6-125.4z" fill="#04294f"/><g fill="#ffb400"><circle cx="699.5" cy="564.3" r="5.7"/><circle cx="712" cy="544.7" r="3.6"/><circle cx="359.1" cy="668.8" r="3.6"/><circle cx="292.1" cy="741.3" r="3.6"/><circle cx="292.1" cy="577.7" r="3.6"/><circle cx="128" cy="548.3" r="3.6"/><circle cx="108.6" cy="371.3" r="3.6"/><circle cx="228.2" cy="279.4" r="3.5"/><circle cx="260.6" cy="188.5" r="3.5"/><circle cx="524.5" cy="188.5" r="3.5"/><circle cx="348.7" cy="238.5" r="3.5"/><circle cx="451.8" cy="328.7" r="3.5"/><circle cx="219.7" cy="396.2" r="3.6"/><circle cx="62.7" cy="255.1" r="3.5"/><circle cx="400" cy="536.5" r="3.6"/><circle cx="701.5" cy="113.6" r="3.6"/><circle cx="421.8" cy="701.1" r="3.6"/><circle cx="625.6" cy="564.3" r="3.6"/><circle cx="539.8" cy="471.4" r="3.6"/><circle cx="455.4" cy="598.8" r="3.6"/><circle cx="783.9" cy="506.6" r="5.7"/><circle cx="343" cy="650" r="5.7"/><circle cx="133.7" cy="628" r="5.7"/><circle cx="409.3" cy="491.2" r="5.7"/><circle cx="496" cy="185" r="5.7"/><circle cx="663.7" cy="307.7" r="5.7"/><circle cx="88.3" cy="390.6" r="5.7"/><circle cx="266.2" cy="337.9" r="5.7"/><circle cx="418.2" cy="79" r="5.7"/><circle cx="616.3" cy="275.9" r="5.7"/><ellipse cx="253.6" cy="143.5" rx="5.7" ry="5.7" transform="matrix(.1602 -.9871 .9871 .1602 71.3308 370.8393)"/></g><circle cx="184.3" cy="49.6" fill="#04294f" r="19.1"/><ellipse cx="112.286" cy="132.083" fill="#04294f" rx="52.498" ry="38.699" transform="matrix(.9225 -.3859 .3859 .9225 -42.2746 53.5647)"/><circle cx="99.7" cy="156.1" fill="#ffb400" r="3.5"/><circle cx="104.5" cy="129.1" fill="#ffb400" r="5.7"/><path d="m603 606.1c-85.3 0-154.6 69.2-154.6 154.6v1.5c90.5 28.8 188.5-11 233.6-94.6 5.9-10.2 12-18.6 19.2-26.1-27.6-23-62.4-35.5-98.2-35.4z" fill="#00aee0"/><path d="m680.9 627.1c-3-.2-6.1 0-9.1.1-5 .2-9.8.4-14-.7-4-1-8-3.5-12.3-6.1-6-3.6-12.2-7.4-19.2-7.6-6.7-.2-12.9 3-19 6.2-4.6 2.4-8.9 4.6-13.3 5.4-4.1.7-8.9 0-13.8-.7-6.9-1-13.9-2-20.4.5-6.2 2.3-10.7 7.6-15.1 12.6-3.5 4-6.7 7.7-10.6 10.1s-8.7 3.5-13.8 4.6c-6.6 1.5-13.3 3.1-18.2 7.5-5.2 4.6-7.6 11.4-9.9 17.9-1.7 4.8-3.2 9.2-5.8 12.6-2.7 3.5-6.7 6.3-10.9 9.3-5.5 3.9-11.3 7.9-14.3 14-3.1 6.3-2.6 13.6-2.2 20.6.3 4.9.6 9.6-.3 13.6-1 4.2-3.4 8.2-5.9 12.6-.6 1.1-1.2 2.2-1.9 3.3 1.4.4 2.7.8 4.1 1.2l1.2.3.8.2c.4-.6.8-1.3 1.1-1.9 2.6-4.5 5.3-9.2 6.6-14.3s.8-10.3.5-15.5c-.4-6.5-.8-12.6 1.5-17.5 2.2-4.6 7.1-8 12.3-11.6 4.5-3.1 9-6.3 12.3-10.6 3.1-4.1 4.9-9.2 6.7-14.3 2.2-6 4.2-11.8 8.2-15.3 3.8-3.3 9.5-4.7 15.5-6.1 5.4-1.2 10.9-2.5 15.6-5.4 4.6-2.9 8.4-7.2 12-11.3 4.1-4.7 7.9-9.2 12.6-10.9 5.1-1.9 11-1.1 17.4-.2 5.2.8 10.6 1.5 15.7.6 5.3-.9 10.3-3.5 15.1-5.9 5.6-2.9 10.9-5.6 16-5.5 5.5.2 10.6 3.4 16.2 6.8 4.5 2.7 9 5.5 14 6.8s10.4 1.1 15.7.8c6.5-.2 12.6-.5 17.2 1.9 2.5 1.5 4.8 3.5 6.5 5.9-1.3-.8-2.7-1.4-4.1-1.8-5.8-1.8-12 0-18 1.7-4.4 1.2-8.9 2.5-12.9 2.3-3.5-.2-7.5-1.9-11.6-3.7-5.9-2.5-11.9-5.2-18.3-4.3-5.8.8-10.7 4.5-15.5 8.2-3.8 2.9-7.6 5.8-11.6 6.9-3.6 1-8 .6-12.7.2-6.2-.6-12.5-1.2-18.2 1.3-5.3 2.4-9 7.2-12.6 12-3 3.9-5.8 7.7-9.3 9.9s-8.2 2.9-13 3.7c-5.9.9-11.9 1.9-16.5 5.5-4.9 3.9-7.3 9.8-9.6 15.5-1.8 4.4-3.5 8.5-6.1 11.2-2.9 3-7.2 5-11.6 7-5.5 2.5-11.1 5.2-14.4 9.9-3.7 5.3-4.2 11.9-4.7 18.3-.3 4.5-.6 8.8-2.2 12s-4.3 6.5-7.2 9.5l.7.2 1.6.3 1.8.4 2.3.5.7.2c2.3-2.5 4.2-5.3 5.8-8.4 1.9-4.2 2.3-9.2 2.7-14.2.5-5.8.8-11.3 3.6-15.2 2.4-3.5 7.1-5.6 11.9-7.9 4.8-2.2 9.8-4.5 13.4-8.3 3.4-3.5 5.4-8.4 7.3-13.2 2.2-5.2 4.2-10.2 7.8-13 3.3-2.6 8.3-3.5 13.7-4.3s10.7-1.8 15.3-4.5c4.5-2.7 7.9-7.2 11-11.4 3.2-4.2 6.3-8.4 10.2-10.1 4.2-1.8 9.5-1.4 15.1-.8 5.1.5 10.3 1 15-.4 5.1-1.5 9.4-4.8 13.6-7.9 4.3-3.3 8.4-6.4 12.6-6.9 4.8-.6 9.8 1.5 15.1 3.9 4.5 1.9 9.1 3.9 13.8 4.2 5.1.3 10.1-1.2 15-2.5 5.4-1.5 10.6-2.9 14.6-1.7 1.9.6 3.7 1.7 5.2 3 .2-.2.4-.5.5-.7l.8-1c.6-.8 1.2-1.5 1.9-2.2l.4-.5c.8-.8 1.5-1.7 2.2-2.5l.3-.3c-6.6-5.1-13.4-9.9-20.6-14.1z" fill="#04294f"/><path d="m689.4 653.9c-5.1 0-9.7 3.1-14.3 6-3.7 2.4-7.5 4.9-11.3 5.5-3 .5-6.9-.5-10.9-1.5-5.2-1.4-11.3-2.9-16.8-1.2-4.9 1.5-8.6 5.5-12.2 9.5-3 3.2-6 6.6-9.5 8-3 1.2-7.2 1-11.5.7-5.5-.4-11.2-.7-16.1 1.8-4.6 2.3-7.6 6.9-10.5 11.4-2.5 3.9-4.9 7.5-7.9 9.3-3.1 1.8-7.4 2.2-11.9 2.7-5.3.5-10.8 1-15 3.9-4.5 3.2-6.9 8.4-9.1 13.5-1.8 4-3.5 7.8-6 9.9-2.9 2.4-7.2 3.5-11.5 4.6-5.2 1.3-10.5 2.7-14 6.3-4.1 4.2-5.5 10.2-6.7 15.4-.9 4.1-1.9 7.9-3.7 10.4l-.2.2c2.3.2 4.6.4 6.9.5 1.3-3.1 2.3-6.3 3-9.6 1.1-4.7 2.2-9.6 5.1-12.5 2.4-2.4 6.7-3.5 11.2-4.7 4.9-1.3 10-2.6 14-5.9 3.6-3 5.6-7.6 7.6-12.1s3.9-8.7 7-10.9c2.9-2 7.2-2.5 11.9-2.9 5.1-.5 10.3-.9 14.6-3.5s7.2-7 9.9-11.3c2.5-3.9 5-7.7 8.1-9.2 2.2-1.1 4.7-1.4 7.5-1.4 1.8 0 3.5.2 5.5.2 4.9.3 9.9.6 14.3-1.2 4.7-1.9 8.2-5.9 11.7-9.6 3.2-3.5 6.2-6.7 9.4-7.7 3.9-1.2 8.7.1 13.4 1.3 4.5 1.2 9.2 2.4 13.6 1.6 5-.8 9.4-3.7 13.6-6.5 2.4-1.7 4.9-3.2 7.6-4.3 1.5-2.4 3.1-4.6 4.6-6.8-.5 0-.8-.1-1.3-.1z" fill="#04294f"/><path d="m658.5 688.2c-4.9-.7-10.5-1.5-15.3.7-4.2 1.9-7.1 6.1-9.8 10.1-2.3 3.4-4.7 6.9-7.6 8.5-2.5 1.3-6.5 1.2-10.6.9-5.1-.2-10.3-.5-14.7 2-4.2 2.3-6.6 6.7-9 11-2.1 3.7-4.1 7.2-6.8 8.9-2.7 1.6-6.8 1.8-11 1.9-4.9.2-10 .3-14 2.9-4.2 2.8-6.5 7.6-8.6 12.1-1.8 3.7-3.4 7.2-5.7 8.9-2.7 1.9-6.9 2.4-11 2.9-4.9.5-9.9 1.1-13.5 4-2.7 2.2-4.5 5.2-5.9 8.4 2.4-.1 4.7-.2 7-.4.7-1.2 1.5-2.3 2.6-3.2 2.3-1.8 6.2-2.2 10.4-2.7 4.9-.5 9.9-1.1 14-3.9 3.7-2.6 5.7-7 7.7-11.3 1.8-4 3.6-7.8 6.4-9.6 2.5-1.6 6.6-1.8 10.8-1.9 4.9-.2 9.9-.3 14-2.8s6.6-6.9 9-11.1c2.1-3.7 4.1-7.2 6.7-8.6 2.9-1.6 7.1-1.4 11.5-1.2 4.7.2 9.6.4 13.6-1.6 4.4-2.2 7.2-6.4 9.9-10.5 2.3-3.5 4.5-6.8 7.2-7.9 3.2-1.4 7.6-.8 11.9-.2 2.2.3 4.3.5 6.5.7 1.8-2.2 3.5-4.5 5.2-6.9-.2.1-.4.2-.6.2-2.7.8-6.4.2-10.3-.3z" fill="#04294f"/><ellipse cx="734.914" cy="699.128" fill="#04294f" rx="38.201" ry="31.6" transform="matrix(.8279 -.5609 .5609 .8279 -265.6488 532.5358)"/><path d="m726.7 668c-3.3 1.2-6.6 2.9-9.5 4.9-17.5 11.8-23.7 33.1-13.9 47.6s31.9 16.6 49.3 4.8l.7-.5c-4.9-20.6-13.9-39.9-26.6-56.8z" fill="#00aee0"/><path d="m753.1 723.7-.5-.8c-2.5-4.2-4.9-8.1-6-12.1-.8-3-.8-6.3-.8-9.9-4.9-11.7-11.3-22.7-18.9-32.9 0 0-.2 0-.3.1-1.5.6-3 1.2-4.5 2l-.5.3c-.5.3-1.2.6-1.7.9l-.6.3c-.7.5-1.4.8-2.1 1.3s-1.2.8-1.9 1.3l-.5.4c-.5.3-.8.7-1.2 1l-.5.5c-.4.4-.8.7-1.2 1.1l-.4.4c-.5.5-1 1-1.5 1.5.3 0 .5-.1.8-.2 4.1-.9 8.1-2 12-3.4 1.7-.5 3.9-1.2 5.7-1.8.8.4 1.7.8 2.5 1.2-1.4 1.7-3.6 3.8-5.2 5.4-3.1 2.9-5.9 5.9-8.6 9.1-2.2 2.7-3 6.6-3.9 10.6-1 4.5-2 9.2-5 12.1-1.6 1.5-4.5 2.2-7.8 2.8.4 1 .8 2 1.3 2.9.2.5.5.9.8 1.4s.5.9.8 1.4c3.4-.7 6.7-1.8 9.1-3.9 4.4-4.1 5.7-10 6.9-15.3.7-3.3 1.4-6.4 2.7-8 2.5-3 5.2-5.9 8.1-8.6 1.3-1.3 2.6-2.5 3.7-3.7-.8 2.5-1.7 5-2.8 7.4-1.5 3.2-2.7 6.6-3.6 10.1-.8 3.4-.3 7.1.2 11.1.6 5.2 1.2 10.7-1.2 14.8-1.5 2.6-5.4 4.5-9.5 6.5.7.2 1.4.5 2.2.7l.2.1c.7.2 1.4.4 2.2.5.8.2 1.5.3 2.4.4h.1c.8.1 1.6.2 2.4.2 2.2-1.3 4-3.2 5.4-5.2 3.5-5.9 2.7-12.6 2-18.7-.4-3.4-.8-6.6-.2-9 .8-3.1 1.9-6.2 3.2-9.1.5-1.3 1.2-2.7 1.6-4 0 3.1-.2 6.2-.7 9.3-.5 4.3-1.1 8.8-.5 12.9.6 4.2 2.5 8.3 4.2 12.3 1.2 2.6 2.4 5.3 3.3 8.1.6-.2 1.3-.5 1.9-.8l.2-.2c.5-.2 1.1-.5 1.6-.8l.4-.2c.5-.3 1-.5 1.5-.8l.5-.2c.6-.4 1.2-.8 1.9-1.2l.7-.5c-.2-.4-.4-.7-.4-1.1z" fill="#04294f"/></svg></g><!--ITEM: Illustration component 2--><g transform="translate(781.0 466.0) rotate(161.86596094025367 -79.0 99.5)  scale(-1.772850699041763 1.7467325568126957)"><svg width="89.122" height="113.927" viewBox="0.0 0.0 89.122 113.927"><g fill="#00aee0"><path d="m79.247 22.727a1.107 1.107 0 0 0 -1.4-.4 224.578 224.578 0 0 0 -21.3 14.8c-3.8 2.9-7.5 6-11.1 9.1.8-3.3 1.6-6.8 2.3-10.3a1.037 1.037 0 0 0 -.8-1.2 1.7 1.7 0 0 0 -.7.1 85.863 85.863 0 0 0 -15.9 11.5 111.03 111.03 0 0 0 -13.2 14.2 97.192 97.192 0 0 0 -10.5 16.4 74.654 74.654 0 0 0 -3.9 9.2 39.736 39.736 0 0 0 -1.5 4.9c-.4 1.6-.8 3.3-1.1 5-.7 4.6 1.2 10.2 3.7 12.9a16.958 16.958 0 0 0 12 5 43.273 43.273 0 0 0 17.6-4.5 59.874 59.874 0 0 0 13.8-9.6 68.986 68.986 0 0 0 10.5-12.4 52.784 52.784 0 0 0 7-14.8v-.5a1 1 0 0 0 -1.3-.8c-4 .9-7.6 1.9-11.2 2.8l3.3-5.1c4.5-7.1 8.8-14.4 12.8-21.9a220.243 220.243 0 0 0 11-23.6 1.949 1.949 0 0 0 -.1-.8z"/><path d="m84.047 36.927a4.3 4.3 0 0 1 0-1.6 2.384 2.384 0 0 1 .6-1.1 3.915 3.915 0 0 1 1-.8 4.013 4.013 0 0 1 1.5-.3 2.019 2.019 0 0 1 1.9 1.6 4.3 4.3 0 0 1 0 1.6 2.384 2.384 0 0 1 -.6 1.1 3.915 3.915 0 0 1 -1 .8 2.7 2.7 0 0 1 -1.5.3 1.918 1.918 0 0 1 -1.9-1.6z"/><path d="m41.147 26.327a4.3 4.3 0 0 1 0-1.6 2.384 2.384 0 0 1 .6-1.1 3.915 3.915 0 0 1 1-.8 4.013 4.013 0 0 1 1.5-.3 2.019 2.019 0 0 1 1.9 1.6 4.3 4.3 0 0 1 0 1.6 2.384 2.384 0 0 1 -.6 1.1 3.915 3.915 0 0 1 -1 .8 4.013 4.013 0 0 1 -1.5.3 2.019 2.019 0 0 1 -1.9-1.6z"/><path d="m80.147 3.827a4.3 4.3 0 0 1 0-1.6 2.384 2.384 0 0 1 .6-1.1 3.915 3.915 0 0 1 1-.8 2.7 2.7 0 0 1 1.5-.3 2.019 2.019 0 0 1 1.9 1.6 4.3 4.3 0 0 1 0 1.6 2.384 2.384 0 0 1 -.6 1.1 3.915 3.915 0 0 1 -1 .8 2.7 2.7 0 0 1 -1.5.3 2.134 2.134 0 0 1 -1.9-1.6z"/><path d="m72.147 62.027a9.612 9.612 0 0 1 1.1-2.8 13.941 13.941 0 0 1 3.6-4.4 9.632 9.632 0 0 1 2.5-1.6 1.431 1.431 0 0 1 1.9.8 2.2 2.2 0 0 1 .1.8 9.612 9.612 0 0 1 -1.1 2.8c-.5.8-1 1.6-1.6 2.4a18.883 18.883 0 0 1 -2 2 9.632 9.632 0 0 1 -2.5 1.6 1.356 1.356 0 0 1 -1.8-.7.8.8 0 0 1 -.2-.9z"/><path d="m54.547 24.227a22.133 22.133 0 0 1 1.6-3.5 29.133 29.133 0 0 1 4.7-5.8 17.8 17.8 0 0 1 3.1-2.3 1.286 1.286 0 0 1 1.8.5 1.183 1.183 0 0 1 .1 1 22.133 22.133 0 0 1 -1.6 3.5 21.838 21.838 0 0 1 -2.2 3.1 22.256 22.256 0 0 1 -2.6 2.7 17.8 17.8 0 0 1 -3.1 2.3 1.286 1.286 0 0 1 -1.8-.5 1.7 1.7 0 0 1 0-1z"/></g><path d="m29.947 55.627a6.154 6.154 0 0 1 .7-2.3 7.607 7.607 0 0 1 1.2-1.9 12.094 12.094 0 0 1 1.6-1.6 5.7 5.7 0 0 1 2.2-1.1 1.584 1.584 0 0 1 1.9 1 1.268 1.268 0 0 1 .1.6 6.154 6.154 0 0 1 -.7 2.3 7.607 7.607 0 0 1 -1.2 1.9 12.094 12.094 0 0 1 -1.6 1.6 5.7 5.7 0 0 1 -2.2 1.1 1.584 1.584 0 0 1 -1.9-1 1.268 1.268 0 0 1 -.1-.6z" fill="#04294f"/><path d="m42.647 92.027a6.154 6.154 0 0 1 .7-2.3 10.578 10.578 0 0 1 2.8-3.5 5.7 5.7 0 0 1 2.2-1.1 1.538 1.538 0 0 1 1.9 1 1.268 1.268 0 0 1 .1.6 6.154 6.154 0 0 1 -.7 2.3 7.607 7.607 0 0 1 -1.2 1.9 12.094 12.094 0 0 1 -1.6 1.6 5.7 5.7 0 0 1 -2.2 1.1 1.584 1.584 0 0 1 -1.9-1 1.268 1.268 0 0 1 -.1-.6z" fill="#04294f"/><path d="m28.847 72.227a17.524 17.524 0 0 1 2-3.5 37.622 37.622 0 0 1 2.5-3.1 23.671 23.671 0 0 1 2.8-2.7 15.231 15.231 0 0 1 3.4-2.2 1.317 1.317 0 0 1 1.8.6 1.079 1.079 0 0 1 0 1.1 17.524 17.524 0 0 1 -2 3.5 29.261 29.261 0 0 1 -5.3 5.8 15.231 15.231 0 0 1 -3.4 2.2 1.317 1.317 0 0 1 -1.8-.6 1.4 1.4 0 0 1 0-1.1z" fill="#04294f"/><path d="m11.947 104.327s-3.4-5.5-4.3-8.7a1.417 1.417 0 0 1 .1-1.1l1.8-4.3a1.645 1.645 0 0 0 .1-1l-.4-2a1.721 1.721 0 0 1 .2-1.2c.7-1.2 2.6-4.1 5-5.4a1.421 1.421 0 0 1 .6-.2l4.5-.3c.2 0 .4-.1.6-.1l3.3-1.5a1.645 1.645 0 0 1 1-.1 17.341 17.341 0 0 1 12.8 10.8 1.7 1.7 0 0 1 0 1l-1.1 4.3a1.8 1.8 0 0 1 -1.2 1.2 1.536 1.536 0 0 0 -1.2 1.9v.1l.9 3.4a1.626 1.626 0 0 1 -.9 1.9c-2.1.8-6.2 2.3-9.3 2.3a1.5 1.5 0 0 0 -1.1.4l-2.9 2.3a1.971 1.971 0 0 1 -1.5.3c-1.8-.7-5.5-2.1-7-4z" fill="#04294f"/><path d="m13.347 97.727a4.3 4.3 0 0 1 0-1.6 2.384 2.384 0 0 1 .6-1.1 3.915 3.915 0 0 1 1-.8 2.7 2.7 0 0 1 1.5-.3 2.019 2.019 0 0 1 1.9 1.6 4.3 4.3 0 0 1 0 1.6 2.384 2.384 0 0 1 -.6 1.1 3.25 3.25 0 0 1 -2.5 1.1 2 2 0 0 1 -1.9-1.6z" fill="#00aee0"/><path d="m27.647 92.327a1.7 1.7 0 0 1 0-1 4.875 4.875 0 0 1 .3-.7 2.651 2.651 0 0 1 .6-.5 2.959 2.959 0 0 1 1-.2 1.482 1.482 0 0 1 1.3 1.1 1.7 1.7 0 0 1 0 1 4.875 4.875 0 0 1 -.3.7 2.651 2.651 0 0 1 -.6.5 2.959 2.959 0 0 1 -1 .2 1.63 1.63 0 0 1 -1.3-1.1z" fill="#00aee0"/><path d="m49.747 59.527a4.3 4.3 0 0 1 0-1.6 2.384 2.384 0 0 1 .6-1.1 3.915 3.915 0 0 1 1-.8 2.7 2.7 0 0 1 1.5-.3 2.019 2.019 0 0 1 1.9 1.6 4.3 4.3 0 0 1 0 1.6 2.384 2.384 0 0 1 -.6 1.1 3.915 3.915 0 0 1 -1 .8 2.7 2.7 0 0 1 -1.5.3 1.918 1.918 0 0 1 -1.9-1.6z" fill="#04294f"/></svg></g><!--ITEM: Illustration component 3--><g transform="translate(584.0 413.0) rotate(0.0 -257.0 239.0)  scale(-0.75733019006925 0.7572877059569074)"><svg width="678.7" height="631.2" viewBox="0.0 0.0 678.7 631.2"><path d="m604.6 11.4c-33-16.7-49.6-14.5-60 2.5-8.7-1.1-14.8-.2-16.4 2.5 4.8 2 9.5 4.4 14.3 6.9 4.6 2.5 9 5.3 13.2 8.4l.2.2.3.2c1.7 1.4 3.4 2.8 5 4.2l.2.2.2.2c3.1 2.8-14.5.3-12 3.7l.2.2c.2.2.2.2.2.3 1.4 1.9 2.8 3.9 4.1 5.9 2 3.5 3.8 7.2 5.3 11.1v.5c.8 2.1 1.4 4.3 1.9 6.5v.2c1.1 4.5 1.7 9.2 1.9 13.9v.2c.6 15.1-3 32.4-11.7 52.2v.3c-.6 1.6-1.4 3.1-2.2 4.7s-1.7 3.4-2.5 5.1c-.2.2-.3.4-.3.6-.8 1.4-1.4 2.8-2.2 4.2v.2l-.9 1.6c-.6 1.1-1.1 2-1.7 3-.3.6-.8 1.2-1.1 1.9-.5.9-1.1 1.7-1.6 2.5-.5.6-.8 1.2-1.2 1.9-.5.9-1.1 1.7-1.7 2.5l-1.2 1.7-.5.8-.2.2c-28.2 39.3-42.7 51-74.5 37.7 0 0-23.4-8.3-40.2-26.8-3.8-.6-7.7-1-11.5-1.1-14.5-.3-27.4 3-39 5.8-18.4 4.5-36 9-63.7 0l-15.6-6.1c-10.3-4.6-20.2-10-29.8-15.9-23.8-14.8-55.8-18.9-78.5-1.7-30.7 23.1-6.7 61.6 9.7 52.1 16.5-9.5 24-.9 34.9 5.5 12.2 7.5 24.9 14.2 38 20.1 0 0 11.4 4.8 15.9 6.2 13.5 4.8 27.5 8.1 41.8 9.7 5.1.5 10.1.8 14.8.8 6.7 0 13.4-.5 20.1-1.4 0 0 3.6-.3 9.4-1.4v.2c-3.4 7.2-12 20.9-21.8 32.9-3.4 4.7-7.3 9-11.7 12.8-7.3 7-14.3 11.4-19.8 10.1l-.6-.2c-45.6-12.2-93-15.3-139.8-9.2-8.6 1.1-17.3 2.5-26.2 4.2l-17 3.7c-17.7 4.3-35 9.8-51.9 16.5-2.2.6-4.4 1.3-6.5 2.2.1-.6.3-1.3.6-1.9 6.9-45-29.9-44.7-39.9-43.3 28.8-4.5 24.3 141.7-.6 134.5 21.4 8.7 26.3-9.8 56.9-25.1 17.6-7.8 35.8-14.1 54.4-18.9l16.5-3.7 1.7-.3 18.7-3c23-3.1 46.3-3.5 69.4-1.2 19.9 1.9 39.6 5.9 58.6 12.2 0 0 3.4 1.2 8.3 2.5.2.8.3 1.4.5 2.2 4.8 7.9 24.9 38.5 53.8 44.4-22.2-3.2-44.8-2.6-66.9 1.7-9.4 1.7-18.8 4.1-27.9 7-1.7.5-3.6 1.2-5.6 1.9-1.7-1.4-3.5-2.6-5.5-3.6-.6-.3-1.2-.3-1.9-.2-15 3.9-29.1 10.8-41.5 20.1-.7.6-1.2 1.4-1.2 2.3s.4 1.8 1.1 2.3c.9.6 1.7 1.4 2.8 2.2-1.6.9-3.1 2-4.5 3-8.2 5.8-16 12.1-23.4 19-6.4 6.1-7.2 6.5-12.8 12.6-10.7 11.4-20.6 23.5-29.5 36.3-2.2 3.1-4 6.5-5.6 10 0-1.2-.2-2.7-.2-4.1-5-44.3-42.1-31.5-52.1-27.3 26.5-10 59.2 130.9 33.4 130.4 22.9 3 39.9-18.1 54.1-38.8 14-20.9 30.9-39.8 50-56.1 0 0 6.4-5.6 13.1-10.3 61.6-45 120-42.5 124.2-41.6h-.2c12.2 2.3 24.8 1.9 36.8-1.2 7.6-1.9 15-4.4 22.1-7.5.4-.1.8-.3 1.2-.5 0 0 .8.6 2.2 1.7.1.1.2.1.3.2 1.9 1.6 3.9 3.1 5.9 4.5 1.5 1 3.2 6.3 4.9 5.5 3.7-1.9 13.3-7 21.5-12.1 2.5-1.6 6-4.9 8.4-6.6 7.9-5.3 17.4-13.5 24-20.4 1.9-2.1-.7-6.1-2.7-8-.2-.2-3 .7-3.1.7l-.8-.5s-1.9-2.1-.8-3.2c3.9-3.4 7.5-5.7 11.3-9.3l3.5-4.2c.9-.9 1.3-2.5 2.2-3.4 0 0 12.1-9.3 13.7-11.4l1.2-2.1c3.7-4.4 6-8.7 9.4-13.2 1.4-1.9 5.4-3.8 6.8-5.7 16.2-22.4 25.3-45.3 30.1-65.5l1.6-1.8c.9-3.1-2.2-6.4-2.1-9.7l.9 2c.5.8.8 1.7 1.2 2.5l.8 1.7c1.5 3.4 2.7 7 3.6 10.6 5.8 23.1.5 50.3-7.9 74.5l-6.1 15.6c-1.9 4.5-3.9 8.9-5.9 12.9l-2 3.9c0 .2-.2.2-.2.3-.2.3-.3.5-.3.8-3.3 6.1-7.9 6.9-17 8.4-2.8.5-6.1.9-9.8 1.7-3.3.6-7 1.4-11.1 2.5-21.8 5.9-11.8 26.2-.2 21.7 5.3-2 23.8.5 7.3 17.9-3.1 3.1-5.9 6.5-8.4 10.1-1.1 1.6-2 3.1-3 4.7-1.3 2.2-2.3 4.7-3 7.2-2.6 11.1 5 18.4 22.6 22.4 35.2 7.9 43.2-10.4 62.8-36 11.4-17.3 21.1-35.6 29.1-54.7l6.2-16.1c10.8-29.6 15.6-57.4 14.6-82.9-.3-10.3-1.7-20.5-4.2-30.5-.8-3.2-1.7-6.4-2.8-9.5-5.2-15.8-13.3-30.5-24-43.3-.3-.3-.5-.6-.8-.9-5.8-6.6-12.1-12.7-18.9-18.4.3.3.6.5.9.8l.6-.6c6.2-7.8 12-15.4 17.1-22.8 16.1-23.2 26.2-44.1 31.8-63 2.6-8.4 4.4-17.1 5.1-25.9.8-8.2.6-16.4-.6-24.5 15-46.3-19.1-81.4-40.9-92.5z" fill="rgb(255,255,255)"/><path d="m654.6 175.4c-1.6-7.6-5.9-14.6-13.4-21.4-5.6 18.9-15.9 39.7-31.8 63 7.5 5.5 14.6 11.2 21.5 17.3 18.7-24.5 26.5-43.9 23.7-58.9z" fill="none"/><path d="m654.6 175.4c3 15-4.8 34.3-23.8 58.9 6 5.3 11.4 11.2 16.4 17.5 25.2-32.1 35.1-57.8 30.5-80.9-3.3-16.5-13.6-30.5-31.6-42.7-.8 8.8-2.5 17.5-5.1 25.9 7.7 6.6 12 13.8 13.6 21.3z" fill="rgb(198,0,0)"/><path d="m647.1 251.8c-5-6.3-10.4-12.1-16.4-17.5-6.9-6.2-14-11.9-21.5-17.3-5.1 7.3-10.8 15-17.1 22.8l-.6.6c6.5 5.3 12.5 11.2 17.9 17.6.3.3.6.6.8.9 1.8-.4 4.7 2.3 6.6 2.3 14.3 0 24.7 8.5 24.8 22.8 0 0-2.3-1.2-2.3-1.1 0 6.7-.3 14.5-5 19.3 1.1 3.1 1.9 6.4 2.8 9.5 2.5 10 3.9 20.2 4.2 30.5 21.7-34.8 28.9-60.7 5.8-90.4z" fill="rgb(0,79,255)"/><path d="m641.7 284.3c0-14.3-11.6-25.9-25.9-25.9-1.8 0-3.7.2-5.5.6 10.7 12.8 18.9 27.5 24 43.3 4.7-4.7 7.3-11.2 7.4-18z" fill="#04294f"/><path d="m565.6 401.8c-.8 2.2-1.6 4.4-2.3 6.4-.6 1.7-1.2 3.3-1.9 4.8s-1.2 2.8-1.7 4.2c8.1 1.1 16.2 2.9 24 5.5 11.2 3.6 24.8 9.2 36.8 18.4l1.2-3.3c1.7-4.2 3.4-8.6 5-12.8-9.4-7.8-21.2-13.2-31.9-16.7-9.6-2.9-19.3-5.1-29.2-6.5z" fill="rgb(198,0,0)"/><path d="m571.1 139.1-1.3 2.5c.8-1.6 1.4-3.1 2.2-4.7z" fill="#fff"/><path d="m545.3 394.2c3.7 2.6 7.5 5.5 11.1 8.3 2.3 1.9 4.7 3.9 7 5.9.8-2.2 1.6-4.2 2.3-6.4 8.6-24.2 13.7-51.4 7.9-74.5-1.2-5.2-3.1-10.1-5.6-14.8-.1.1-.3.2-.5.2h-.5c-3.3 21.8-15.9 48-34.1 73.2l.9.5c3.9 2.5 7.6 4.9 11.5 7.6z" fill="rgb(0,79,255)"/><path d="m539.6 401.8c3.7 2.5 7.9 6.7 11.8 9.2 2.9 1.9 6.9.6 10 2.2.6-1.6 1.2-3.3 1.9-4.8-2.2-2.1-4.6-4.1-7-5.9-3.6-3-7.3-5.6-11.1-8.3s-7.6-5.1-11.5-7.6l-.9-.5c-1.2 1.9-2.6 3.7-4.1 5.5.3.3.6.5.9.8 3.7 2.7 6.3 6.8 10 9.4z" fill="#04294f"/><path d="m534.1 414.9c3.7 2.6 7.5 5.5 11.1 8.3 2.9 2.3 5.8 4.7 8.4 7.3 2-4.1 4.1-8.4 5.9-12.9.6-1.4 1.2-2.8 1.7-4.2-3.1-1.6-6.1-3.3-9-5.1-3.9-2.3-7.6-5-11.5-7.6s-7.5-5.5-11.1-8.3c-.3-.3-.6-.5-.9-.8-3.4 4.5-6.9 8.9-10.6 13.2 1.4.8 3 1.7 4.4 2.5 4 2.3 7.9 5 11.6 7.6z" fill="rgb(0,79,255)"/><path d="m518.7 412.9c3.6 3 7.3 5.6 11.1 8.3s7.6 5.1 11.5 7.6c3.4 2 6.7 4.1 10.3 5.9 0-.2.2-.2.2-.3l2-3.9c-2.6-2.5-5.6-5-8.4-7.3-3.6-3-7.3-5.6-11.1-8.3s-7.6-5.1-11.5-7.6c-1.4-.9-2.9-1.8-4.4-2.5l-1.7 2c-.8.9-1.6 1.7-2.3 2.6 1.3 1.2 2.7 2.4 4.3 3.5z" fill="#04294f"/><path d="m529.8 421.2c-3.7-2.6-7.5-5.5-11.1-8.3-1.4-1.2-3-2.3-4.4-3.6-3 3.4-6.1 6.9-9.4 10.1-.9.9-1.7 1.9-2.6 2.8 2.8 1.6 5.5 3.1 8.1 4.7 3.9 2.3 7.6 5 11.5 7.6s7.5 5.5 11.1 8.3l1.1.9c9-1.4 13.6-2.2 17-8.4.2-.2.3-.5.3-.8-3.5-1.8-7-3.8-10.3-5.9-3.9-2.3-7.7-4.7-11.3-7.4z" fill="rgb(0,79,255)"/><path d="m522 434.6c-3.7-2.6-7.6-5.1-11.5-7.6-2.6-1.6-5.3-3.3-8.1-4.7l-3.7 3.7c2.5 2.3 5.1 4.5 7.8 6.7 3.6 3 7.3 5.6 11.1 8.3 2.2 1.6 4.5 3.1 6.7 4.7 3.7-.8 7-1.2 9.8-1.7l-1.1-.9c-3.6-3.2-7.2-6-11-8.5z" fill="#04294f"/><path d="m506.5 432.5c-2.6-2.2-5.3-4.4-7.8-6.7-3.6 3.6-7.3 7-11.2 10.4l2.5 2c.5.4.6 1 .3 1.6l.8.5c2.3 1.6 2.8 4.8 1.2 7 0 0-.1.1-.1.1-.2.2-.2.3-.3.5-6.5 6.9-13.9 13-21.8 18.2l.7 3.3c5 3.1 8.4 7.2 13.2 10.7s10.1 6.2 14.6 10c4.1 3.3 9.5 3.8 13.4 7.6 2.5-3.6 5.4-7 8.4-10.1 16.5-17.5-2-19.9-7.3-17.9-11.5 4.5-21.7-15.7.2-21.7 3.6-1 7.3-1.9 11.1-2.5-2.3-1.6-4.5-3-6.7-4.7-3.8-2.7-7.6-5.3-11.2-8.3z" fill="rgb(198,0,0)"/><path d="m505 419.4c3.1-3.3 6.2-6.7 9.4-10.1.8-.9 1.6-1.7 2.3-2.6-3-1.1-5.8-2.2-8.7-3.3-46.5-18.3-88.9-45.4-125-80s36.5-51.3 69-109.4c25.1 15.7 59.2 30.1 95.5 38 20.3 4.5 41.1 6.6 61.9 6.1-5.4-6.4-11.4-12.3-17.9-17.6-.3-.3-.6-.5-.9-.8-11.6-.6-23.1-2-34.4-4.1-33.9-6.4-66.6-18.3-96.6-35.2l.2-.5c-2.8-1.1-5.6-2.4-8.3-3.9-2.6-1.4-5.3-2.8-7.9-4.4-9.4-5.5-17.6-11.4-24-18.5-2.8-.5-5.6-.8-8.4-.9 2.3 9.5 11.7 20.6 25.9 31.5.8.6 1.7 1.2 2.5 1.9-7 12.5-14.2 24.5-21.2 35.7-25.4 40.7-47.5 70-47.5 70-17.9-19-26.8-32.6-26.8-32.6-3.6 4.6-7.5 8.8-11.7 12.8-0 .2 55.8 85.6 172.6 127.9z" fill="rgb(198,0,0)"/><path d="m486.1 477c-4.8-3.4-9.7-6.5-14.6-9.7l-1.4-.9c-2.5 1.7-5 3.3-7.5 4.8 1.2 1.1 1.4 3.9 2.8 5 4.5 3.7 5.7 12.2 10.6 15.7s12.8 2.7 17.8 5.8c4.5 2.8 10.5 2.5 15.3 4.8.9-1.6 1.9-3.2 3-4.7-3.8-3.6-7.7-7.1-11.8-10.3-4.8-3.7-9.5-7.1-14.2-10.5z" fill="#04294f"/><path d="m495 494.7c-5-3.1-9.8-6.2-14.6-9.7s-9.5-6.9-14-10.6c-1.2-1.1-2.6-2.2-3.9-3.3-8.3 5-15.6 8.7-19.3 10.6-1.7.8-3.6.6-5.1-.3-2-1.4-4.1-3-6.2-4.7-.4.5-1.2.6-1.7.2l-1.9-1.4c-7.2 3.1-14.6 5.6-22.1 7.5l.3 1.2c41.8 45.8 79.2 42.5 99.6 25.4.7-2.5 1.7-4.9 3-7.2-5.1-2.2-9.6-5-14.1-7.7z" fill="rgb(0,79,255)"/><path d="m443.4 191.6c2.5 1.6 5.3 3 7.9 4.4 2.7 1.5 5.4 2.8 8.3 3.9 31.8 13.2 66.7 7.3 94.9-32.1l.2-.2.5-.8 1.2-1.7c.6-.8 1.1-1.7 1.7-2.5.5-.6.8-1.2 1.2-1.9.6-.8 1.1-1.6 1.6-2.5.3-.6.8-1.2 1.1-1.9.6-1 1.2-1.9 1.7-3l.9-1.6v-.2c.8-1.4 1.6-2.8 2.2-4.2.2-.2.3-.4.3-.6.9-1.7 1.7-3.4 2.5-5.1l1.2-2.5.9-2v-.3c.3-.6.6-1.3.8-2 5.1-11.5 8.6-23.7 10.3-36.2.3-3.1.6-6.2.6-9.4v-4.8l-.5-4.7-.2-2.3-.5-2.3-.9-4.5v-.2c-.5-1.6-.9-3-1.2-4.5l-.6-2v-.5l-.8-2c-.6-1.4-1.2-3-1.9-4.4l-2.2-4.2-.3-.6c-1.2-2.1-2.6-4-4.1-5.9 0-.2-.2-.2-.2-.3l-.2-.2c-2.6-3.3-5.4-6.4-8.4-9.4l-.2-.2-.2-.2c-1.6-1.4-3.3-2.8-5-4.2l-.3-.2-.2-.2c-4.2-3.2-8.6-6-13.2-8.4-4.8-2.5-9.7-4.8-14.3-6.9-1.4-.6-3-1.2-4.4-1.7-.4.9-1.4 1.4-2.3 1.1-8.7-2.6-17.6-6.5-26.3-5.4-4.4.5-9.8 1.3-13.9 2.9-4.1 1.7-9.7 5.1-13.3 7.6-7.2 5.4-16.2 12.6-21.7 19.8-5.6 7.2-8.3 14.7-12.9 22.6-4.7 7.9-8.9 15.7-12.7 24.1-3.9 8.3-6.9 18.1-9.6 26.8-2.6 8.6-3.8 18.3-3.9 27.3 0 8.9 4.5 16.5 9 24.1.5.8.3 1.9-.5 2.4 0 0-.1 0-.1.1 1.2 1.7 2.5 3.3 3.9 4.8 6.7 7.8 14.9 13.7 24.1 19z" fill="#04294f"/><path d="m305.5 177.9c-5.4-1.7-10.6-3.8-15.7-6.1 0 0-4.1 34.4-25.9 60 5.2 2.3 10.5 4.4 15.9 6.2 20.4-21.8 25.7-60 25.7-60.1z" fill="rgb(198,0,0)"/><path d="m194.7 473.1c-4.2 3.9-8.4 8.1-12.8 12.6-6.4 6.7 34.6 18.2 50.2 50.5 4.4-3.6 8.7-7 13.1-10.3l-.3-.3c-15-33.2-49.6-52.4-50.2-52.5z" fill="rgb(198,0,0)"/><path d="m146.1 296.5c-5.6 1.1-11.2 2.3-17 3.7 3.6 6.7 16.4 33 12.8 64.2 5.5-1.4 11.1-2.6 16.5-3.7 3.7-30.4-8.4-56.4-12.3-64.2z" fill="rgb(198,0,0)"/><path d="m94.6 500.5-.5.2c-9.4 3.9-24.8 14.8-18.5 50.2 6.1 35.4 29.6 77 52.4 80 25.8.5-6.9-140.4-33.4-130.4z" fill="rgb(0,79,255)"/><path d="m31.4 273.7c-10 1.4-27.7 7.9-30.9 43.8s8.7 82 30.1 90.7c25.1 7.2 29.6-139 .8-134.5z" fill="rgb(0,79,255)"/><path d="m416.3 165.7c-4.6-7.7-7-16.6-7-25.6s1.4-18 4.1-26.7c2.7-8.8 6-17.3 10-25.6 3.9-8.3 8.3-16.5 12.8-24.5 4.5-7.9 9.6-15.6 15.3-22.8 5.4-7.2 11.9-13.5 19.2-18.9 3.6-2.5 7.5-4.7 11.5-6.4 4.1-1.6 8.4-2.6 12.8-3.1 8.7-1.1 17.8.6 26.5 3.3.9.3 2-.2 2.3-1.1.3-1-.2-2-1.1-2.5-4.4-1.9-9-3.3-13.7-4.2-4.8-1-9.7-1.5-14.6-1.2s-9.8 1.3-14.5 3-9.1 3.9-13.2 6.7c-8.3 5.5-15 12.5-21.2 19.8-5.9 7.4-11.3 15.3-16 23.5-2.3 4.1-4.7 8.3-6.9 12.5l-3.1 6.2c-1.1 2.2-2 4.4-3 6.4-4 8.7-7.2 17.6-9.8 26.8-2.6 9.3-3.7 19-3.3 28.7.3 4.9 1.3 9.7 2.8 14.3s3.7 9 6.5 12.9c.6.8 1.6 1 2.5.6l.2-.2c.8-.1 1.4-.8 1.3-1.5-.2-0-.3-.2-.4-.4z" fill="rgb(0,79,255)"/><path d="m234.9 184.3c0-1.1-.9-1.9-2-1.9-5.9.3-12 .6-17.3-.3-2.3-.3-4.5-1.1-6.4-2.5-1.4-1.3-2.1-3.2-1.9-5.1-.2-2 .7-4 2.2-5.3 1.9-1.4 4.1-2.3 6.4-2.6 5.3-.8 11.1-.2 17 .8 1.1.1 2-.5 2.3-1.6.1-.9-.3-1.8-1.1-2.2-2.9-1.3-5.9-2.3-9-3-3.2-.8-6.5-1.1-9.8-.8-3.8.2-7.5 1.5-10.4 3.9-1.6 1.4-2.9 3.1-3.7 5-.8 1.8-1.2 3.8-1.2 5.8s.3 4 .9 5.9c.8 2 2.1 3.8 3.7 5.1 1.5 1.2 3.3 2.1 5.1 2.6 1.7.5 3.4.8 5.1.9 6.4.3 12.8-.6 18.9-2.8.8-.2 1.3-1 1.2-1.9z" fill="#04294f"/><path d="m190.5 321c8.9-1.6 26.2-3.6 43.2-.6 1.5.3 3-.7 3.3-2.3.1-.3.1-.7 0-1-1.4-8.7-4.7-24.5-10.9-32.1-.4-.5-1-.9-1.7-.9-6.6-1.3-13.4-1.8-20.1-1.7-8.7 0-17.4.9-25.9 2.6-.9.1-1.7.7-2 1.6-.5.8-.5 1.7 0 2.5 4.9 9.4 8.6 19.4 10.9 29.8.2 1.4 1.7 2.3 3.2 2.1zm28.2-29.8c.5 0 .3 1.8.8 2 1.7 1.2 2.2-3 3.3-1.3s2 3.5 2.6 5.5c.7 2 1.1 4 1.2 6.1.2 2.1-.2 4.3-.9 6.2-.3 1-1.4 1.6-2.5 1.3-.1 0-.1 0-.2-.1-.5-.2-.9-.6-1.1-1.1l-.2-.2c-.8-1.7-1.4-3.3-2-5-.6-1.6-1.1-3.1-1.7-4.8-.6-1.6-1.1-3.3-1.6-5-.6-1.7 3.4-.8 3.2-2.6l-.9-1c0-1-1 .3 0 0zm-14.1-.8c.5 0-.1.5.4.8 1.7 1.2 3.1-1.3 4.2.4s2 3.5 2.6 5.5c.7 2 1.1 4 1.2 6.1.2 2.1-.2 4.3-.9 6.2-.3 1-1.4 1.6-2.4 1.3-.1 0-.1 0-.2-.1-.5-.2-.9-.6-1.1-1.1l-.2-.2c-.8-1.7-1.4-3.3-2-5-.6-1.6-1.1-3.1-1.7-4.8-.6-1.6-1.1-3.3-1.6-5-.6-1.7 2.9-1.3 2.7-3.1-.1-1.1-2.5-.1-1.5-.3zm-15.8 1.3c-.1-1.1 0 0 1.1-.2.5 0-.5-.3 0 0 1.7 1.2 3.1-.1 4.3 1.7 1.1 1.7 2 3.5 2.6 5.5.7 2 1.1 4 1.2 6.1.2 2.1-.2 4.3-.9 6.2-.4 1-1.6 1.6-2.6 1.2-.5-.2-.9-.6-1.1-1.1l-.2-.2c-.8-1.7-1.4-3.3-2-5-.6-1.6-1.1-3.1-1.7-4.8-.6-1.6-1.1-3.3-1.6-5-.6-1.7 1.4-2.1 1.2-3.9z" fill="rgb(255,255,255)"/><path d="m190 326.3c.4 0 .8 0 1.2-.2 8.6-1.4 25.2-3.4 41.5-.6 2.5.5 5.1-.3 6.9-2.2s2.7-4.4 2.3-7c-1.2-8.3-3.6-18.4-7.3-26.5-1.3-2.8-2.8-5.5-4.7-7.9-1.2-1.4-2.8-2.4-4.7-2.8-15.9-2.8-32.2-2.5-48 .9-4.3.9-7.1 5.1-6.2 9.4v.1c.2.7.4 1.4.8 2 .2.3.3.6.5.9 4.5 8.7 7.8 17.9 10 27.4.7 3.8 3.9 6.4 7.7 6.5zm-13.7-37.3c-.5-.8-.5-1.7 0-2.5.4-.8 1.1-1.4 2-1.6 8.5-1.7 17.2-2.6 25.9-2.6 6.7-.1 13.5.5 20.1 1.7.6.2 1.2.5 1.7.9 6.1 7.6 9.5 23.4 10.9 32.1.3 1.5-.7 3-2.3 3.3-.3.1-.7.1-1 0-16.8-3-34.3-.8-43.2.6-1.5.3-3-.8-3.3-2.3-2.2-10.3-5.9-20.3-10.8-29.6z" fill="#04294f"/><path d="m189.5 301.3c.6 1.6 1.1 3.3 1.7 4.8.6 1.7 1.2 3.4 2 5l.2.2c.4 1 1.5 1.5 2.5 1.1.1 0 .2-.1.3-.1.5-.2.9-.6 1.1-1.1.8-2 1.1-4.1.9-6.2-.1-2.1-.5-4.1-1.2-6.1-.7-1.9-1.5-3.8-2.6-5.5-1.1-1.8-2.5-3.3-4.2-4.5-.4-.3-1-.5-1.6-.3-1.1.2-1.9 1.2-1.7 2.3v.3c.3 1.8.7 3.6 1.2 5.3.3 1.5 1 3.1 1.4 4.8z" fill="#04294f"/><path d="m201.7 289.5c.3 1.7.8 3.6 1.2 5.3s1.1 3.3 1.6 5c.6 1.6 1.1 3.3 1.7 4.8.6 1.7 1.2 3.4 2 5l.2.2c.3.4.7.8 1.1 1.1 1 .4 2.2 0 2.6-1 0-.1.1-.1.1-.2.8-2 1.1-4.1.9-6.2-.1-2.1-.5-4.1-1.2-6.1-.7-1.9-1.6-3.7-2.6-5.5-1.1-1.8-2.5-3.3-4.2-4.5-.4-.3-1-.5-1.6-.3-1.1.2-1.9 1.2-1.7 2.3z" fill="#04294f"/><path d="m215.4 289.5v.3c.3 1.7.8 3.6 1.2 5.3s1.1 3.3 1.6 5c.5 1.6 1 3.3 1.7 4.8.6 1.7 1.2 3.4 2 5l.2.2c.2.5.6.9 1.1 1.1 1 .4 2.2 0 2.6-1 0-.1.1-.1.1-.2.8-2 1.1-4.1.9-6.2-.1-2.1-.5-4.1-1.2-6.1-.7-1.9-1.5-3.8-2.6-5.5-1.1-1.8-2.5-3.3-4.2-4.5-1-.6-2.2-.4-3 .5-.3.3-.5.8-.4 1.3z" fill="#04294f"/><path d="m613.1 323.9c9.4-2.5 14.7-13.2 11.7-23.8s-12.8-17-22.3-14.3-14.7 13.2-11.7 23.8c2.8 10.6 12.8 17 22.3 14.3z" fill="#04294f"/><path d="m448.1 296.6c-6 0-10.9 4.9-10.9 10.9s4.9 10.9 10.9 10.9 10.9-4.9 10.9-10.9c0-6-4.8-10.9-10.8-10.9zm-1.6 15.8c-3.1 0-5.6-2.5-5.6-5.6s2.5-5.6 5.6-5.6 5.6 2.5 5.6 5.6c.1 3.1-2.4 5.6-5.6 5.6z" fill="#04294f"/><circle cx="475.7" cy="311.1" fill="rgb(198,0,0)" r="5.5"/><path d="m467.1 320c-3 0-5.5 2.4-5.5 5.5s2.4 5.5 5.5 5.5c3 0 5.5-2.4 5.5-5.5 0-3-2.4-5.5-5.5-5.5z" fill="rgb(198,0,0)"/><circle cx="446.5" cy="306.8" fill="rgb(0,79,255)" r="5.6"/><path d="m466.2 269.7c.9.9 2 1.7 3.1 2.3s2.3 1.1 3.6 1.4c1.3.4 2.7.4 4.1.2.3 0 .7-.1.9-.3 1-.6 1.4-1.9.8-2.9 0-.1-.1-.1-.1-.2v-.2c-.7-1-1.5-1.9-2.5-2.6-.9-.7-1.8-1.4-2.8-1.9-1-.6-2-1.1-3.1-1.4-1.2-.4-2.4-.7-3.6-.8h-.3c-.3 0-.6 0-.9.2-1.2.5-1.7 1.8-1.2 3 .3 1.1 1 2.3 2 3.2z" fill="#04294f"/><path d="m459.3 280.3c1.8 1.9 4.2 3.2 6.7 3.7 1.3.4 2.7.4 4.1.2.3 0 .7-.1.9-.3 1-.6 1.3-1.9.7-3 0-.1-.1-.1-.1-.2v-.2c-1.3-2-3.2-3.6-5.3-4.7-1-.6-2-1.1-3.1-1.4-1.2-.4-2.4-.7-3.6-.8h-.3c-.3 0-.6 0-.9.2-1.2.5-1.7 1.8-1.2 3 .4 1.3 1.1 2.5 2.1 3.5z" fill="#04294f"/><path d="m464.1 295.4c1-.6 1.3-1.9.7-3 0-.1-.1-.1-.1-.2v-.2c-.7-1-1.5-1.9-2.5-2.6-.9-.7-1.8-1.4-2.8-1.9-1-.6-2-1.1-3.1-1.4-1.2-.4-2.4-.7-3.6-.8h-.3c-.3 0-.6 0-.9.2-1.1.5-1.7 1.8-1.2 3 .5 1.3 1.3 2.5 2.3 3.4.9.9 2 1.7 3.1 2.3s2.3 1.1 3.6 1.4c1.3.4 2.7.4 4.1.2.1-.1.4-.1.7-.4z" fill="#04294f"/><path d="m514.3 280.3c.3-1.1.8-2 1.1-3l.2-.5c.3-1.1.8-2.2 1.1-3.3.4-1.3-.3-2.8-1.6-3.3-1.6-.6-3.3-1.2-4.8-1.9l-.6-.3c-1.6-.6-3.1-1.2-4.5-1.9l-.8-.3c-1.4-.6-3-1.2-4.4-1.9l-.9-.5-4-1.9c-11.7-5.2-22.8-11.6-33.4-18.9-.6-.5-1.4-.6-2.2-.5-.7.1-1.4.6-1.7 1.2-.2.5-23.5 45.2-40.8 66.9-.9 1-.8 2.6.2 3.5 0 0 0 0 .1.1 1.1.9 27 22.9 58 33.2.2.1.5.2.8.2.8 0 1.6-.4 2-1.1 1.1-1.6 24.2-34.8 36.2-65.9zm-91.9 31.6c15.1-19.6 33.4-53.5 38.5-63.1 9.3 6.1 19 11.6 29 16.4-2.5 5.9-9.5 21.7-12.8 26.2-.5.6-.6 1.3-.5 2 .2.7.6 1.3 1.2 1.7.5.3 10.9 6.4 19.9 9.2-6.9 13-14.5 25.7-22.8 37.9-24.6-8.8-46.1-25.1-52.5-30.3zm77.6-21.7c-.7 1.3-2.2 2-3.6 1.6-1.9-.7-3.8-1.5-5.6-2.5-1.4-.7-2-2.5-1.3-3.9 1.4-2.5 3-6.2 4.1-8.7.6-1.4 2.3-2.1 3.7-1.6 1.6.6 3.1 1.2 4.8 2 1.4.6 2.2 2.2 1.7 3.7-1 3.3-2.3 6.4-3.8 9.4z" fill="#04294f"/><path d="m431.7 474.9c-3.9-3.6-7.6-7.3-11.2-11.2l-.5-.6c26.5-11.8 47.7-33.5 49.9-35.8l3.3 2.3 7.6 5.5c2.5 1.9 5.1 3.6 7.6 5.5.5.3 1.2.3 1.7-.2.2-.2.2-.2.2-.3.3-.5.2-1.2-.3-1.6l-2.5-2-4.7-3.9-7.2-5.9-12.2-9.8c-.8-.8-1.6-1.4-2.3-2.2-1-.8-2.6-.7-3.4.3-4.7 4.9-9.7 9.5-15 13.7l-.2.2c-1.1.8-2 1.7-3.1 2.5-1.6 1.2-3.1 2.5-4.8 3.7-8.5 6.4-17.6 11.7-27.3 16.1-1.4.6-2 2.2-1.3 3.6.2.4.4.7.7.9 0 0 .5.3 1.2.9 3.1 3.4 6.4 6.7 9.8 10s6.9 6.2 10.4 9.2l1.9 1.4c.5.4 1.3.4 1.7-.2.6-.7.5-1.5 0-2.1z" fill="#04294f"/><path d="m573.9 437.8c-.7 0-1.4.3-1.7.9-.6.9-.3 2.2.6 2.8 2.4 1.4 4.8 2.6 7.3 3.7s4.8 2.2 7.3 3.1l7.3 3c2.3.9 4.7 1.9 7.2 3h.2c1 .5 2.1 0 2.6-.9 0-.1 0-.1.1-.2.3-.6.2-1.3-.2-1.9-1.7-2.4-3.9-4.5-6.4-6.1-2.4-1.6-4.9-2.9-7.6-3.9-2.6-1.1-5.3-1.9-8.1-2.5-2.8-.7-5.7-1.1-8.6-1z" fill="#04294f"/><path d="m589.3 456.4c-1-.9-2.3-1.6-3.6-2-1.3-.5-2.6-.8-3.9-.9-1.4-.1-2.8 0-4.2.3l-.9.5c-.9.8-1.1 2.2-.3 3.1l.2.2c.9 1 1.9 1.8 3 2.5 1 .6 2 1.1 3.1 1.6 1 .4 2.1.8 3.1 1.1 1.1.3 2.3.5 3.4.5h.6c.3 0 .5 0 .8-.2 1.1-.4 1.7-1.7 1.2-2.8-.4-1.7-1.2-3-2.5-3.9z" fill="#04294f"/><path d="m566.7 504.4c-2.8-1.6-5.6-3.1-8.4-4.4-2.8-1.4-5.8-2.5-8.7-3.7-3-1.1-5.9-2.2-9-3.1h-.2c-1.9-.6-4 .5-4.7 2.3-.5 1.1-1 2.2-1.6 3.3-.6 1.2-1.3 2.3-2 3.4-1.4 2.2-3 4.5-4.7 6.7-1.6 2.2-3.3 4.4-5 6.7l-5 6.7c-.6.9-.4 2.1.4 2.8.7.5 1.6.5 2.3 0 2.2-1.9 4.4-3.7 6.4-5.6 2-2 4.1-4.1 5.9-6.1 1.9-2.1 3.8-4.4 5.5-6.7 1.1-1.6 2-3.1 3-4.7l5.6 2 8.7 3.1c3 1.1 5.8 2 8.6 3.1 2.8 1 5.6 2.2 8.3 3.6.9.5 2.1.1 2.6-.8 0 0 0-.1.1-.1.3-.8.2-1.7-.3-2.3-2.2-2.5-4.8-4.7-7.8-6.2z" fill="#04294f"/><path d="m567.9 312.5c.8-.4 1.2-1.3 1.1-2.2-.6-2.9-1.6-5.7-3-8.3-1.4-2.5-3-4.9-4.8-7.2-1.9-2.2-4-4.2-6.4-5.9-2.5-1.7-5.2-3-8.1-3.7-1.1-.2-2.2.4-2.5 1.6-.2.7 0 1.4.5 1.9l.2.2c1.9 2 3.7 3.7 5.5 5.6s3.4 3.7 5.1 5.8l5 5.9 5.1 6.1.2.2c.4.4.9.6 1.4.6h.5c-.1-.4.1-.4.2-.6z" fill="#04294f"/><path d="m603 309.1.2 7.6c0 .4.3.8.7.8h.1c.2 0 .3 0 .5-.2l5.6-4.5c.2-.1.5-.2.8-.2l6.7 2.3c.3.2.7 0 .9-.3 0-.1 0-.1.1-.2v-.5l-2.5-7.2c-.2-.2 0-.5.2-.6l4.2-6.2c.3-.2.3-.7 0-.9-.1-.1-.1-.1-.2-.1-.2-.2-.3-.2-.6-.2l-7.2.2c-.2 0-.5-.1-.6-.3l-4.2-6.1c-.2-.3-.7-.4-1.1-.2-.2.2-.3.3-.3.5l-1.9 7.2c0 .3-.2.5-.5.5l-6.7 2.3c-.4.1-.6.5-.5.9v.1c0 .2.1.3.3.3l6.1 4.4c-.3.1-.1.3-.1.6z" fill="rgb(0,79,255)"/><path d="m593.6 167.6c-4.3-1.9-9.2-1.7-13.4.5-8.9 4.7-13.5 14.8-11.2 24.6 1.1 4.6 4.3 8.4 8.6 10.4 1.9.8 4 1.2 6.1 1.2 2.5 0 5-.6 7.3-1.7 8.9-4.7 13.4-14.9 11.1-24.6-1.1-4.6-4.2-8.4-8.5-10.4zm0 21.4c-1.3 2.9-3.5 5.2-6.2 6.7-3.6 2-8.2.7-10.3-2.9-.4-.7-.6-1.4-.8-2.1-1.4-6.2 1.5-12.6 7.2-15.6 1.2-.6 2.5-.9 3.9-.9 1 0 2 .2 3 .6 2.2 1.1 3.7 3.1 4.2 5.5.8 2.8.4 6-1 8.7z" fill="#04294f"/><path d="m608.9 140c-4.4-2-9.7.8-12.2 5.9-2.3 5.3-.8 11.1 3.4 13.1 4.4 2 9.8-.8 12.2-5.9 2.5-5.3 1-11.2-3.4-13.1z" fill="#04294f"/><ellipse cx="562.4" cy="16" fill="rgb(198,0,0)" rx="10.3" ry="8.9" transform="matrix(.5 -.866 .866 .5 267.3479 495.002)"/><g fill="#04294f"><path d="m579.9 35c6.1 3.7 12.2 7.6 17.8 11.8l4.2 3.3c1.4 1.1 2.7 2.3 4.1 3.4 2.7 2.3 5.3 4.7 7.6 7.2 5.1 5 9.8 10.3 14 16.1 4.4 5.8 8.3 11.7 12 17.8.6.9 1.9 1.2 2.8.6.8-.5 1.1-1.5.8-2.3-2.5-7.1-5.9-13.8-10-20.1-1.1-1.6-2-3.1-3.1-4.7s-2.2-3-3.4-4.5-2.4-2.9-3.7-4.2c-1.4-1.2-2.5-2.8-3.9-4.1-5.3-5.3-11.2-10.1-17.4-14.2-6.3-4-13-7.3-20.1-9.8-1-.4-2.1.1-2.5 1.1-.4.9 0 2 .8 2.6z"/><path d="m666.4 189.3v.3c-1.4 4.4-3.1 8.7-4.8 13.1-.9 2.2-1.7 4.4-2.8 6.4-.5 1.1-.9 2.2-1.4 3.1-.4 1.1-.9 2.1-1.6 3.1-4.1 8.3-9.2 16.2-15 23.5-.5.5-.5 1.4 0 1.9s1.4.5 1.9 0c3.7-3.1 7-6.7 9.8-10.8.8-.9 1.4-2 2.2-3s1.4-2 2-3.1l1.9-3.1 1.7-3.3c1.1-2.2 2.2-4.4 3.1-6.5s1.9-4.5 2.6-6.7l1.2-3.4c.3-1.1.8-2.3 1.1-3.4.5-1.7.9-3.6 1.2-5.3 1.9.3 3.9.6 5.8 1.1.7.2 1.5-.1 1.7-.8s-.1-1.4-.8-1.7c-2.5-1-5-1.9-7.6-2.6-.8-.3-1.8.2-2.2 1.2z"/><path d="m658.3 161.8c-1.1.8-2.2 1.7-3.1 2.6-.5.6-.4 1.5.2 2 .3.2.7.4 1 .3 1.3-.1 2.6-.5 3.9-.9 2.5-.9 4.8-2.1 7-3.6 1.1-.7 2.1-1.6 3.1-2.5.5-.6.4-1.5-.2-2-.2-.2-.6-.4-.9-.3-1.3.1-2.6.5-3.9.9-2.4.9-4.9 2-7.1 3.5z"/><path d="m651.6 158.6c1.3-.3 2.6-.7 3.9-1.2 2.3-1.1 4.5-2.6 6.4-4.4 1-.9 1.9-1.9 2.7-3 .5-.6.3-1.5-.3-2-.3-.2-.7-.3-1.1-.2-1.3.3-2.5.7-3.7 1.2-2.4 1.2-4.6 2.6-6.5 4.4-1 .9-1.8 1.9-2.6 3-.2.3-.3.7-.2 1.1 0 .7.6 1.2 1.3 1.1z"/><path d="m77 316.7c-2.2.6-4.4 1.3-6.5 2.2l-.3.9c-.8 2.3-1.2 4.7-1.9 7l-1.7 7c-.6 2.3-1.2 4.5-1.9 6.9v.2c-.3 1.1.3 2.2 1.4 2.5.7.2 1.4 0 1.9-.5 2.2-1.8 3.9-4.1 5.1-6.7 1.2-2.4 2.2-4.9 2.8-7.5.7-2.6 1.1-5.2 1.2-7.8.1-1.4 0-2.8-.1-4.2z"/><path d="m315.5 372.5c-.2-.6-.3-1.1-.5-1.7 0 .6.2 1.2.5 1.7z"/><path d="m306.7 368.3c1.6 1.1 8.3 2.5 8.3 2.5l-.5-1.9-1.7-7-1.7-7c-.6-2.4-1.2-4.8-2-7.2v-.2c-.2-.6-.7-1.1-1.4-1.2-1.1-.3-2.2.3-2.5 1.4-.8 2.6-1.1 5.3-.9 7.9.1 2.7.4 5.3 1.1 7.9.3 1.7.7 3.3 1.3 4.8z"/><path d="m238.2 474.5c2.6 3.5 7.5 4.3 11.1 1.9 7.2-4.8 21.5-13.7 37.2-17.9 2.5-.6 4.5-2.4 5.3-4.8.9-2.4.6-5.1-.8-7.3-4.7-7.3-10.3-14-16.5-19.9-2.6-2.4-5.6-4.5-8.7-6.2-1.7-.8-3.6-1-5.5-.6-15.7 4.1-30.4 11.2-43.3 20.9-3.6 2.6-4.4 7.6-1.7 11.2.4.6 1 1.1 1.6 1.6l1.4 1.1c7.4 5.5 14.1 12.3 19.9 20zm-19.4-27.9c0-.9.5-1.8 1.2-2.3 12.4-9.4 26.4-16.2 41.5-20.1.6-.2 1.3-.1 1.9.2 8.9 4.5 18.4 17.3 23.4 24.6.5.8.6 1.8.3 2.6s-1 1.5-1.9 1.7c-16.5 4.5-31.5 13.6-38.8 18.7-1.3.8-3 .5-3.9-.8-6.4-8.5-14-16-22.4-22.4-.8-.5-1.3-1.3-1.3-2.2z"/><path d="m230.2 446.3.2.2c1 1.5 2.2 2.9 3.4 4.2 1.2 1.2 2.3 2.5 3.6 3.9 1.2 1.2 2.3 2.5 3.6 3.6 1.2 1.3 2.5 2.6 3.9 3.7l.2.2c.9.7 2.1.6 2.9-.2 0 0 .1-.1.1-.1.3-.4.5-.9.5-1.4-.2-2.1-.7-4.2-1.7-6.1-1-1.8-2.2-3.5-3.6-5s-2.9-2.8-4.7-3.9-3.7-1.9-5.8-2.3c-1.3-.2-2.5.7-2.7 2-.1.3-.1.7.1 1.2z"/><path d="m243.3 438.8c1 1.5 2.2 2.9 3.4 4.2 1.2 1.2 2.3 2.5 3.6 3.9 1.2 1.2 2.3 2.5 3.6 3.6 1.2 1.3 2.5 2.6 3.9 3.7l.2.2c.4.3.9.5 1.4.5 1.1-.1 1.9-1.1 1.9-2.2-.2-2.1-.7-4.2-1.7-6.1-1-1.8-2.2-3.5-3.6-5s-3-2.8-4.7-3.9c-1.8-1.1-3.7-1.9-5.8-2.3-1.1-.2-2.2.5-2.5 1.6-.1.5 0 1.1.3 1.6z"/><path d="m255.9 433.3c1 1.5 2.1 2.9 3.3 4.2 1.2 1.2 2.3 2.5 3.6 3.9 1.1 1.3 2.3 2.5 3.6 3.6 1.2 1.3 2.5 2.6 3.9 3.7l.2.2c.9.7 2.1.6 2.9-.2 0 0 .1-.1.1-.1.3-.4.5-.9.5-1.4-.2-2.1-.7-4.2-1.7-6.1-1-1.8-2.2-3.5-3.6-5s-2.9-2.8-4.7-3.9-3.7-1.9-5.8-2.3c-.5-.1-1.1 0-1.6.3-.9.6-1.2 1.9-.6 2.8z"/><path d="m134.5 611.6c.2-1.2-.7-2.3-1.9-2.5-1.9-.2-3.7-.2-5.6 0-1.8.2-3.6.6-5.3 1.1-1.8.5-3.5 1.1-5.1 1.9-1.7.8-3.4 1.8-4.8 3-.4.3-.7.8-.8 1.4-.2 1.1.6 2.1 1.7 2.3h.2c1.9.2 3.7.2 5.6 0 1.8-.2 3.6-.6 5.3-1.1 1.8-.5 3.5-1.1 5.1-1.9 1.7-.8 3.4-1.8 4.8-3 .4-.3.7-.7.8-1.2z"/><path d="m83.1 521.5c1.9.2 3.7.2 5.6 0 1.8-.2 3.6-.6 5.3-1.1 1.8-.5 3.5-1.1 5.1-1.9 1.7-.8 3.4-1.8 4.8-3 .9-.7 1.1-2 .3-3-.4-.4-.9-.7-1.4-.8-1.9-.3-3.8-.3-5.6 0-3.6.4-7.1 1.4-10.4 3-1.7.8-3.4 1.8-4.8 3-.9.7-1.1 2-.3 3 .3.5.8.8 1.4.8z"/><path d="m98.7 536.6c2.8-.8 5.6-1.7 8.3-2.8 2.8-1.1 5.4-2.4 7.9-3.9.9-.6 1.2-1.9.6-2.8-.4-.6-1-1-1.7-.9-2.9.1-5.8.4-8.7.9-2.8.5-5.6 1.2-8.4 2s-5.6 1.7-8.3 2.8c-2.8 1.1-5.4 2.4-7.9 3.9-.9.6-1.2 1.9-.6 2.8.4.6 1 1 1.7.9 2.9 0 5.9-.3 8.7-.9 2.8-.5 5.6-1.1 8.4-2z"/><path d="m102.7 553.2c3.1-.8 6.1-1.9 9.2-3 3-1.2 6-2.5 8.9-4.1.9-.6 1.3-1.8.8-2.8-.4-.7-1.1-1.1-1.9-.9-3.2.2-6.5.6-9.7 1.2-3.1.6-6.2 1.4-9.4 2.2-3.1.9-6.1 1.9-9.2 3-3 1.2-6 2.5-8.9 4.1-.9.6-1.3 1.8-.8 2.8.4.7 1.1 1.1 1.9.9 3.2-.2 6.5-.6 9.7-1.2s6.4-1.3 9.4-2.2z"/><path d="m107.4 569.5c3.1-.9 6.1-1.9 9-3 3-1.1 5.9-2.5 8.7-4.1.9-.6 1.2-1.8.8-2.8-.4-.7-1.1-1.1-1.9-.9-3.2.2-6.5.6-9.7 1.2-3.1.6-6.2 1.4-9.4 2.2-3.1.9-6.1 1.9-9.2 3-3 1.2-6 2.5-8.9 4.1-.9.6-1.3 1.8-.8 2.8.4.7 1.1 1.1 1.9.9 3.2-.2 6.5-.6 9.7-1.2 3.4-.5 6.6-1.3 9.8-2.2z"/><path d="m113.2 585.4c2.8-.8 5.8-1.7 8.6-2.8 2.9-1.1 5.6-2.4 8.3-3.9.9-.6 1.2-1.9.6-2.8-.4-.6-1-1-1.7-.9-3 .1-6.1.5-9 1.1-3 .6-5.9 1.2-8.7 2s-5.8 1.7-8.6 2.8c-2.9 1.1-5.6 2.4-8.3 3.9-.9.6-1.2 1.8-.8 2.8.4.7 1.1 1.1 1.9.9 3-.1 6.1-.5 9-1.1 2.9-.4 5.8-1.1 8.7-2z"/><path d="m118.5 601.6c2.4-.6 4.7-1.4 7-2.3s4.6-2.1 6.7-3.4c.9-.6 1.2-1.9.6-2.8-.3-.6-.9-.9-1.6-.9-2.5 0-5 .2-7.5.6-4.9.8-9.6 2.2-14.2 4.1-2.3.9-4.6 2.1-6.7 3.4-.9.6-1.2 1.9-.6 2.8.3.6 1 1 1.7.9 2.5 0 5-.2 7.5-.6 2.4-.5 4.7-1.1 7.1-1.8z"/><path d="m154.8 533.2c-.2-2.8-.6-5.5-1.2-8.3-.3-1.1-.6-2.2-.9-3.3-2.3 3.1-4.1 6.4-5.6 10 0 .7 0 1.4.2 2l.5 7.6c.2 2.5.3 5 .6 7.6v.2c.1 1.1 1 1.9 2.1 1.9h.1c.7 0 1.4-.4 1.7-1.1 1.3-2.6 2.1-5.4 2.5-8.3.1-2.7.2-5.5 0-8.3z"/><path d="m374.7 220.6c-.8-.6-2-.4-2.5.4 0 .1-.1.1-.1.2-3.4 5.5-6.9 10.9-10.1 16.7-1.7 2.8-3.3 5.6-4.8 8.6l-.3.6-.2.3c7-.6 9.5-1.7 9.5-1.7.9-1.3 1.8-2.6 2.5-4.1 1.7-3 3.3-6.1 4.7-9.2 1.4-3.2 2.3-6.6 2.6-10.1-.3-.7-.7-1.3-1.3-1.7z"/><path d="m39.5 391.5c1.1-.5 1.6-1.7 1.1-2.8-.2-.5-.6-.9-1.1-1.1-1.7-.8-3.6-1.3-5.5-1.6-1.8-.3-3.6-.5-5.5-.5-1.8 0-3.7.2-5.5.5-1.9.3-3.7.8-5.5 1.4-.5.2-.9.6-1.1 1.1-.5 1.1 0 2.3 1.1 2.8 1.7.8 3.6 1.3 5.5 1.6 3.6.6 7.2.6 10.8 0 2-.1 3.9-.5 5.7-1.4z"/><path d="m15.9 289.6c1.7.8 3.6 1.3 5.5 1.6 1.8.3 3.6.5 5.5.5 1.8 0 3.7-.2 5.5-.5 1.9-.3 3.7-.8 5.5-1.6 1.1-.5 1.6-1.7 1.1-2.8-.2-.5-.6-.9-1.1-1.1-1.7-.8-3.6-1.3-5.5-1.6-3.6-.5-7.2-.5-10.8 0-1.9.3-3.7.8-5.5 1.4-1.1.5-1.6 1.7-1.1 2.8.1.9.5 1.2.9 1.3z"/><path d="m9.5 306.6c2.8.8 5.7 1.2 8.6 1.4 5.7.6 11.4.6 17.1 0 2.9-.3 5.8-.8 8.6-1.6.7-.2 1.2-.7 1.4-1.4.3-1.1-.3-2.2-1.4-2.5-2.8-.7-5.7-1.3-8.6-1.6-5.7-.6-11.4-.6-17.1 0-2.9.3-5.8.8-8.6 1.6-1.1.3-1.7 1.4-1.4 2.5.1.8.7 1.5 1.4 1.6z"/><path d="m6.9 323.6c3.2.8 6.4 1.3 9.7 1.6s6.4.5 9.7.5 6.4-.2 9.7-.5 6.5-.8 9.7-1.6c1.1-.3 1.7-1.4 1.4-2.5-.2-.7-.7-1.2-1.4-1.4-3.2-.8-6.4-1.3-9.7-1.6s-6.4-.5-9.7-.5-6.4.2-9.7.5-6.4.8-9.7 1.4c-1.1.3-1.7 1.4-1.4 2.5.1.8.7 1.4 1.4 1.6z"/><path d="m26.1 342.5c3.3 0 6.4-.2 9.7-.5s6.5-.8 9.7-1.6c1.1-.3 1.7-1.4 1.4-2.5-.2-.7-.7-1.2-1.4-1.4-3.2-.8-6.4-1.3-9.7-1.6s-6.4-.5-9.7-.5c-3.1 0-6.4.2-9.7.5s-6.5.8-9.7 1.6c-.7.2-1.2.7-1.4 1.4-.2 1.1.4 2.1 1.4 2.5 3.2.8 6.4 1.3 9.7 1.4 3.2.5 6.4.7 9.7.7z"/><path d="m27.5 359.4c3 0 6-.2 9-.5s6.1-.8 9-1.6c1.1-.3 1.7-1.4 1.4-2.5-.2-.7-.7-1.2-1.4-1.4-3-.8-6-1.3-9-1.6s-6-.5-9-.5-6 .2-9 .5-6.1.8-9 1.4c-.7.2-1.2.7-1.4 1.4-.3 1.1.3 2.2 1.4 2.5 3 .8 6 1.3 9 1.6 2.9.6 5.9.8 9 .7z"/><path d="m28.1 376.4c2.4 0 4.9-.2 7.3-.5 2.5-.3 4.9-.8 7.3-1.6.6-.1 1.1-.6 1.2-1.2.4-1-.1-2.1-1.1-2.5h-.1c-2.4-.8-4.8-1.3-7.3-1.6-4.9-.6-9.8-.6-14.6 0-2.5.3-4.9.8-7.3 1.6-1 .4-1.6 1.6-1.2 2.6.2.6.6.9 1.2 1.2 2.4.8 4.8 1.3 7.3 1.4 2.4.5 4.8.6 7.3.6z"/></g></svg></g><!--ITEM: Illustration component 4--><g transform="translate(922.0 200.0) rotate(0.0 60.0 85.5)  scale(0.6048234671505255 0.6044773745179204)"><svg width="198.405" height="282.889" viewBox="0.0 0.0 198.405 282.889"><g fill="#04294f"><path d="m118.427 167.24c-7.38-2.78-14.52-6-21.61-9.31s-14.06-6.85-21-10.51-13.74-7.44-20.41-11.53a194.2 194.2 0 0 1 -19.4-13.38 1 1 0 0 1 .94-1.73 195.582 195.582 0 0 1 21.87 8.91c7.08 3.33 14 6.95 20.85 10.72s13.62 7.67 20.3 11.75 13.27 8.3 19.65 12.94a1.23 1.23 0 0 1 -1.15 2.14z"/><path d="m196.927 226.51a101.727 101.727 0 0 1 -12.8-4.56c-4.15-1.76-8.2-3.69-12.17-5.76a118.348 118.348 0 0 1 -11.61-6.79 66.314 66.314 0 0 1 -10.62-8.61 1 1 0 0 1 -.046-1.413c.015-.016.03-.032.046-.047a1 1 0 0 1 .91-.27 65.78 65.78 0 0 1 13 4.15 118.406 118.406 0 0 1 12 6c3.92 2.18 7.75 4.5 11.5 7a99.5 99.5 0 0 1 10.84 8.2 1.24 1.24 0 0 1 -1.15 2.13z"/><path d="m164.117 80.19a100.246 100.246 0 0 1 -12.81-4.56c-4.14-1.76-8.19-3.69-12.16-5.76a120.362 120.362 0 0 1 -11.61-6.78 67.352 67.352 0 0 1 -10.63-8.58 1.05 1.05 0 0 1 0-1.47 1 1 0 0 1 .91-.27 66.51 66.51 0 0 1 13 4.15 120.362 120.362 0 0 1 12.05 6q5.871 3.27 11.49 7a98.605 98.605 0 0 1 10.85 8.2 1.24 1.24 0 0 1 -1.15 2.13z"/><path d="m100.817 199.71a100.157 100.157 0 0 1 -12.8-4.57c-4.15-1.75-8.2-3.68-12.17-5.76a118.459 118.459 0 0 1 -11.61-6.78 66.314 66.314 0 0 1 -10.62-8.61 1 1 0 0 1 -.046-1.413c.015-.016.03-.032.046-.047a1.083 1.083 0 0 1 .91-.28 67.209 67.209 0 0 1 13 4.15 120.362 120.362 0 0 1 12.05 6c3.92 2.18 7.75 4.5 11.5 7a99.417 99.417 0 0 1 10.84 8.19 1.25 1.25 0 0 1 -1.1 2.12z"/><path d="m157.157 269.11c-11.63-5.07-23-10.58-34.36-16.19-5.65-2.83-11.31-5.66-16.91-8.59l-8.43-4.35-8.36-4.47-8.37-4.46-8.32-4.54c-5.54-3.05-11-6.23-16.49-9.37s-10.88-6.45-16.25-9.82-10.72-6.76-15.93-10.42a1 1 0 0 1 .94-1.73c5.92 2.34 11.7 4.94 17.45 7.58s11.45 5.41 17.13 8.19 11.3 5.68 16.89 8.63l8.37 4.45 8.33 4.55 8.32 4.54 8.27 4.64c5.52 3.07 11 6.25 16.46 9.42 10.92 6.39 21.78 12.88 32.41 19.81a1.21 1.21 0 0 1 .354 1.674v.006a1.2 1.2 0 0 1 -1.504.45z"/><path d="m76.817 282.88a37.721 37.721 0 0 1 -8-2 59.285 59.285 0 0 1 -7.36-3.17 42.633 42.633 0 0 1 -6.81-4.19 25.92 25.92 0 0 1 -5.82-6 1.12 1.12 0 0 1 .31-1.55 1.105 1.105 0 0 1 .62-.19 25.845 25.845 0 0 1 8.23 1.56 42.739 42.739 0 0 1 7.25 3.38 59.46 59.46 0 0 1 6.69 4.42 37.383 37.383 0 0 1 6.05 5.6 1.3 1.3 0 0 1 -.141 1.833l-.009.007a1.33 1.33 0 0 1 -1.01.3z"/><path d="m28.157 144.33a38.041 38.041 0 0 1 -8-2 62.127 62.127 0 0 1 -7.34-3.14 43.189 43.189 0 0 1 -6.81-4.2 25.721 25.721 0 0 1 -5.82-6 1.12 1.12 0 0 1 .93-1.74 25.96 25.96 0 0 1 8.24 1.56 43 43 0 0 1 7.24 3.39 60.951 60.951 0 0 1 6.7 4.41 36.994 36.994 0 0 1 6 5.61 1.289 1.289 0 0 1 -.137 1.819l-.013.011a1.332 1.332 0 0 1 -.99.28z"/><path d="m144.257 239.14a8.226 8.226 0 0 1 -2 .35 8.883 8.883 0 0 1 -1.8-.06 10.494 10.494 0 0 1 -3.16-.9 7 7 0 0 1 -2.62-1.94 7.521 7.521 0 0 1 -1.63-3.76 1.641 1.641 0 0 1 .94-1.73 7.52 7.52 0 0 1 4-.71 7.11 7.11 0 0 1 3.06 1.13 10.244 10.244 0 0 1 2.49 2.15 8.159 8.159 0 0 1 1 1.47 8.946 8.946 0 0 1 .82 1.87 1.719 1.719 0 0 1 -1.1 2.13z"/><path d="m190.237 135.93a8.131 8.131 0 0 1 -2 .35 8.883 8.883 0 0 1 -1.8-.06 10.651 10.651 0 0 1 -3.17-.9 7 7 0 0 1 -2.61-1.94 7.521 7.521 0 0 1 -1.63-3.76 1.642 1.642 0 0 1 .93-1.73 7.541 7.541 0 0 1 4-.71 7.082 7.082 0 0 1 3.05 1.13 10.291 10.291 0 0 1 2.5 2.15 8.107 8.107 0 0 1 1 1.47 7.85 7.85 0 0 1 .82 1.87 1.709 1.709 0 0 1 -1.09 2.13z"/><path d="m50.177 92.87a8.7 8.7 0 0 1 -2 .34 8.212 8.212 0 0 1 -1.8-.06 10.189 10.189 0 0 1 -3.16-.9 7.121 7.121 0 0 1 -2.62-1.94 7.514 7.514 0 0 1 -1.63-3.75 1.652 1.652 0 0 1 .94-1.74 7.412 7.412 0 0 1 4-.7 7 7 0 0 1 3.06 1.12 10.244 10.244 0 0 1 2.49 2.15 8.522 8.522 0 0 1 1 1.47 8.946 8.946 0 0 1 .82 1.87 1.739 1.739 0 0 1 -1.1 2.14z"/><path d="m149.287 146.32a33.568 33.568 0 0 1 -7.57-1.74 52.829 52.829 0 0 1 -6.92-2.93 37.015 37.015 0 0 1 -6.37-4 23.208 23.208 0 0 1 -5.38-5.78 1.15 1.15 0 0 1 .93-1.74 23.1 23.1 0 0 1 7.84 1.38 36.912 36.912 0 0 1 6.81 3.14 51.582 51.582 0 0 1 6.25 4.18 33.26 33.26 0 0 1 5.61 5.36 1.31 1.31 0 0 1 -.191 1.843l-.009.007a1.29 1.29 0 0 1 -1 .28z"/><path d="m136.117 16.19a33.866 33.866 0 0 1 -7.57-1.74 51.727 51.727 0 0 1 -6.92-2.93 37.645 37.645 0 0 1 -6.37-4 23.249 23.249 0 0 1 -5.39-5.78 1.15 1.15 0 0 1 .37-1.57 1.187 1.187 0 0 1 .57-.17 23.2 23.2 0 0 1 7.79 1.32 37.647 37.647 0 0 1 6.81 3.15 54.342 54.342 0 0 1 6.25 4.17 34.112 34.112 0 0 1 5.61 5.37 1.329 1.329 0 0 1 -.2 1.85 1.3 1.3 0 0 1 -.95.33z"/></g></svg></g><!--ITEM: Illustration component 5--><g transform="translate(985.0 77.0) rotate(0.0 -242.0 152.5)  scale(-0.37593371760387306 0.3743497973601589)"><svg width="1287.461" height="814.746" viewBox="0.0 0.0 1287.461 814.746"><path d="m33.601 163.52c12.363-21.264 36.912-36.412 55-34 30 4 41 46 20 62-14.667 11.175 2-25-19-31s-34.224 98.414 30 128c89 41 156-14 260-33 104.372-19.068 182.398-24.777 194-28 18-5 23-6 25-6 39.56 0 137.577 7.006 115.289 68.503-22.289 61.497-303.289 222.497-312.289 224.497s-123 5-226-17c-83.812-17.902-147.562-82.322-167-161-21-85 0-130 25-173z" fill="#f04e23"/><path clip-rule="evenodd" d="m1197.604 343.614c15.233-5.083 22.416-3.662 27.68-4.143 5.263-.48 21.426-1.949 28.603-15.218s-3.115-73.054-3.115-73.054l-53.396-17.878-17.137 14.132 1.938 40.758-22.63 35.076 7.435 8.989z" fill="#f9b71b" fill-rule="evenodd"/><path clip-rule="evenodd" d="m1277.007 316.366c-3.59 4.057-7.831 7.487-12.548 10.15-5.404 3.237-11.184 5.918-16.508 5.882s-10.039-3.371-10.429-9.185c-.478-7.129 5.436-15.171 11.739-20.063 7.471-5.8 19.098-10.373 26.76-9.579 9.786 1.012 8.414 13.975.986 22.795z" fill="#f9b71b" fill-rule="evenodd"/><path clip-rule="evenodd" d="m1279.402 289.354c-4.854 5.483-10.586 10.121-16.964 13.721-7.306 4.377-15.119 7.999-22.314 7.951-7.195-.047-13.571-4.556-14.097-12.416-.644-9.638 7.35-20.508 15.869-27.122 10.099-7.839 25.817-14.02 36.173-12.948 13.228 1.372 11.371 18.894 1.333 30.814z" fill="#f9b71b" fill-rule="evenodd"/><path clip-rule="evenodd" d="m1270.26 262.551c-4.458 5.81-9.852 10.838-15.961 14.875-6.981 4.877-14.522 9.037-21.703 9.493-7.182.458-13.858-3.594-14.932-11.398-1.317-9.567 5.897-20.972 13.932-28.166 9.525-8.528 24.772-15.794 35.178-15.449 13.292.441 12.666 18.05 3.486 30.645z" fill="#f9b71b" fill-rule="evenodd"/><path clip-rule="evenodd" d="m1251.355 239.053c-4.458 5.81-9.852 10.838-15.961 14.875-6.981 4.877-14.522 9.037-21.703 9.493-7.182.458-13.858-3.594-14.932-11.398-1.317-9.567 5.897-20.973 13.932-28.166 9.525-8.528 24.772-15.794 35.178-15.449 13.291.442 12.666 18.05 3.486 30.645z" fill="#f9b71b" fill-rule="evenodd"/><path clip-rule="evenodd" d="m1163.548 285.848c-.812-5.504-3.251-10.621-3.666-16.197-2.244-30.123 18.765-48.778 41.341-49.283 8.517-.114 17.645 4.144 23.865 9.114 6.221 4.97 8.788 9.386 13.346 15.774 4.415 5.578 4.395 16.158-6.514 18.569-10.364 2.29-15.998-.396-24.358-5.211-4.878-3.254-7.817 1.032-4.294 4.934 4.802 6.27 9.924 13.021 9.799 21.064-.398 14.524-15.715 24.587-29.336 27.4-7.425 1.753-15.502 2.177-21.868-1.065-1.946-.872-3.519-2.324-4.514-4.165-.893-2.063 2.083-5.17 4.09-8.546 2.211-3.716 2.69-8.464 2.109-12.388z" fill="#f9b71b" fill-rule="evenodd"/><g fill="#f04e23"><path d="m1186.903 311.833c-.162-.376 1.776-1.55 5.274-3.507 1.744-.982 3.867-2.183 6.212-3.691 2.622-1.658 5.061-3.588 7.277-5.759 2.568-2.533 4.542-5.605 5.778-8.995 1.351-3.836 1.636-7.966.824-11.951-.93-4.356-3.154-8.33-6.382-11.4-.419-.389-.844-.777-1.296-1.132-.129-.103-.182-.157-.376-.301l-.702-.507c-.457-.336-.941-.669-1.471-1.08-1.7-1.165-2.754-3.059-2.847-5.118-.028-.958.228-1.902.733-2.718.509-.807 1.241-1.451 2.106-1.852 2.026-.761 4.288-.564 6.152.536l.903.436.798.434 1.176.64c.589.313 1.176.624 1.762.935 1.167.609 2.325 1.177 3.48 1.694 2.201 1.019 4.505 1.795 6.873 2.315 4.524.945 9.124.419 12.299-1.743 1.567-1.049 2.844-2.476 3.711-4.15.784-1.51 1.086-3.226.863-4.913-.291-1.712-.926-3.346-1.865-4.805-.949-1.516-1.998-2.965-3.141-4.341-4.434-5.54-8.421-9.719-11.176-12.626-2.766-2.901-4.294-4.554-4.039-4.871.24-.3 2.246.766 5.521 3.199 4.596 3.493 8.869 7.391 12.767 11.648 1.372 1.433 2.637 2.965 3.784 4.583 1.383 1.919 2.35 4.104 2.841 6.418.49 2.662.142 5.411-.995 7.868-1.169 2.522-2.972 4.697-5.232 6.314-2.348 1.65-5.051 2.724-7.891 3.135-2.832.417-5.714.35-8.525-.201-2.795-.562-5.516-1.439-8.113-2.614-1.293-.567-2.558-1.181-3.8-1.823-.856-.454-1.716-.911-2.582-1.37-1.3-.69-.008-.016-.028-.007-.008.005-.009.013-.004.025l.592.488c.568.461 1.1.958 1.622 1.458 7.786 7.541 10.199 19.061 6.095 29.092-1.649 3.952-4.199 7.465-7.447 10.257-2.579 2.202-5.42 4.077-8.458 5.584-2.231 1.12-4.528 2.1-6.879 2.938-3.841 1.359-6.049 1.828-6.194 1.478z"/><path d="m1184.579 248.094c-.808-.06-1.393-1.194-2.183-2.635-1.708-3.562-4.437-6.535-7.84-8.539-1.368-.91-2.448-1.59-2.439-2.4.009-.392.311-.768.907-1.061.817-.353 1.704-.509 2.592-.456 1.306.05 2.591.352 3.782.891 3.02 1.339 5.347 3.874 6.424 6.997.436 1.232.629 2.538.566 3.844-.023.89-.254 1.761-.675 2.545-.343.57-.742.839-1.134.814z"/><path d="m1191.584 238.278c-.91.029-1.786-.342-2.398-1.014-1.742-1.61-3.27-3.438-4.545-5.439-.553-.722-.762-1.65-.572-2.54.276-.726 1.238-1.163 2.627-.959 3.579.771 6.176 3.878 6.298 7.536-.047 1.403-.646 2.272-1.41 2.416z"/><path d="m1271.207 260.095c.35.184.271 1.102-.2 2.645-.325.914-.699 1.811-1.119 2.685-.575 1.15-1.214 2.266-1.916 3.342-.378.61-.802 1.228-1.276 1.85-.464.63-.948 1.288-1.501 1.923-1.145 1.39-2.38 2.703-3.698 3.93-.686.664-1.419 1.308-2.196 1.937-.757.654-1.581 1.255-2.419 1.871-.827.631-1.737 1.175-2.63 1.773-.925.547-1.859 1.114-2.838 1.624-1.901 1.008-3.872 1.876-5.898 2.6-1.892.689-3.833 1.239-5.806 1.642-3.411.727-6.929.798-10.367.21-1.332-.257-2.631-.66-3.876-1.2-.934-.42-1.814-.948-2.625-1.571-.521-.391-.973-.864-1.339-1.402-.248-.386-.312-.66-.196-.82.115-.161.405-.203.832-.146.418.072.999.198 1.707.372.712.165 1.568.342 2.552.497 1.116.148 2.24.226 3.366.234 2.955-.043 5.89-.486 8.725-1.319 1.706-.495 3.385-1.081 5.029-1.754 1.78-.713 3.521-1.521 5.214-2.418.875-.453 1.712-.954 2.548-1.425.805-.522 1.636-.981 2.398-1.519.769-.523 1.539-1.024 2.249-1.572.733-.52 1.43-1.055 2.094-1.602 1.35-1.065 2.58-2.148 3.703-3.2.578-.511 1.096-1.041 1.607-1.546.521-.495 1.001-.99 1.448-1.474.931-.94 1.709-1.851 2.444-2.626.7-.797 1.319-1.485 1.86-2.034 1.023-1.128 1.771-1.689 2.124-1.507z"/><path d="m1276.454 293.953c.144.137.117.44-.071.896-.282.638-.637 1.241-1.058 1.797-.637.88-1.329 1.719-2.072 2.511-.99 1.045-2.039 2.034-3.14 2.961-1.343 1.126-2.752 2.171-4.219 3.129-1.69 1.106-3.452 2.1-5.273 2.974-2.021.97-4.103 1.804-6.235 2.494-2.311.746-4.679 1.304-7.079 1.669-2.477.383-4.99.46-7.484.227-2.418-.221-4.781-.844-6.993-1.845-2.073-.951-3.921-2.333-5.419-4.052-1.265-1.491-2.231-3.21-2.847-5.066-.519-1.517-.742-3.118-.661-4.718.057-1.204.347-2.387.854-3.48.177-.394.4-.767.661-1.113.176-.264.391-.5.637-.699.398-.335.677-.44.844-.332.166.107.216.419.177.877-.054.451-.126 1.089-.164 1.858-.046.914.02 1.83.196 2.728.232 1.166.639 2.29 1.207 3.334.666 1.251 1.533 2.386 2.567 3.358 1.177 1.065 2.546 1.896 4.035 2.448 1.728.63 3.539 1.001 5.376 1.101 2.067.117 4.141.016 6.185-.303 2.119-.325 4.216-.783 6.279-1.371 2.014-.576 3.93-1.241 5.729-1.951 1.806-.7 3.473-1.491 5.026-2.256 1.554-.768 2.96-1.57 4.247-2.314 1.281-.752 2.421-1.477 3.433-2.114 1.012-.652 1.884-1.214 2.598-1.675.567-.366 1.157-.694 1.767-.983.444-.19.75-.227.897-.09z"/><path d="m1248.636 331.27c.057.217.017.448-.112.632-.187.296-.435.546-.727.736-1.007.65-2.163 1.032-3.359 1.109-1.8.157-3.61-.127-5.274-.828-1.01-.412-1.957-.961-2.818-1.631-1.917-1.473-3.323-3.511-4.016-5.827-.32-1.042-.496-2.123-.523-3.214-.063-1.804.316-3.598 1.102-5.223.499-1.09 1.267-2.035 2.232-2.745.281-.204.604-.347.946-.416.216-.055.447-.011.629.12.165.151.268.356.294.578.038.305.043.613.016.918-.058.709-.173 1.631-.224 2.695-.064 1.195.027 2.392.269 3.564.134.649.328 1.286.578 1.901.5 1.269 1.285 2.409 2.294 3.327.486.453 1.012.86 1.572 1.217 1.009.642 2.097 1.153 3.236 1.519 1.011.332 1.914.551 2.598.749.296.083.582.197.853.341.197.103.352.273.434.478z"/><path d="m1269.418 248.051c-.43.081-.874-.003-1.243-.238-.212-.117-.431-.267-.671-.433-.236-.168-.45-.369-.709-.571-.478-.422-1.01-.895-1.558-1.411-.291-.245-.557-.528-.869-.785-.298-.267-.605-.543-.92-.826-.324-.273-.642-.539-.947-.797-.298-.273-.614-.497-.897-.751-.587-.47-1.129-.931-1.614-1.347-.237-.228-.465-.413-.663-.623-.198-.214-.376-.41-.522-.604-.283-.333-.429-.762-.408-1.198.082-.444.377-.819.79-1.002.272-.153.567-.261.874-.319.378-.086.766-.127 1.154-.122.994.009 1.978.201 2.903.564.545.211 1.071.469 1.57.771 1.084.638 2.041 1.47 2.824 2.456.369.454.697.938.982 1.448.488.865.814 1.813.962 2.797.059.384.072.774.039 1.16-.016.311-.082.618-.195.909-.122.435-.452.78-.882.922z"/><path d="m1253.596 222.138c-.43.081-.874-.003-1.243-.238-.212-.117-.431-.267-.67-.433-.236-.168-.45-.369-.709-.571-.478-.422-1.01-.895-1.558-1.411-.291-.245-.557-.528-.869-.785-.298-.267-.605-.543-.92-.826-.324-.273-.642-.539-.947-.797-.298-.273-.614-.497-.897-.751-.587-.47-1.129-.931-1.614-1.347-.237-.228-.465-.413-.663-.623-.198-.214-.376-.41-.522-.604-.283-.333-.429-.762-.408-1.198.082-.444.377-.819.79-1.002.272-.153.567-.261.874-.319.378-.086.766-.127 1.154-.122.994.009 1.978.201 2.903.564.545.211 1.071.469 1.57.771 1.084.638 2.041 1.47 2.824 2.456.369.454.697.938.982 1.448.488.865.814 1.813.962 2.797.059.384.072.774.039 1.16-.016.311-.082.618-.195.909-.123.435-.453.78-.883.922z"/><path d="m1280.763 274.598c-.408-.029-.798-.175-1.125-.42-.363-.266-.702-.565-1.009-.894-1.363-1.519-2.57-3.168-3.608-4.925-.221-.392-.405-.804-.548-1.231-.136-.385-.157-.802-.062-1.199.122-.405.412-.737.797-.911.534-.246 1.129-.331 1.711-.247.803.097 1.575.364 2.266.783.405.242.785.524 1.133.842.757.676 1.363 1.503 1.78 2.429.199.428.353.874.462 1.333.191.785.214 1.602.064 2.396-.095.581-.356 1.121-.751 1.558-.283.314-.687.491-1.11.486z"/><path d="m1276.675 311.04c-1.573.194-3.056-1.344-3.315-3.435-.259-2.092.807-3.944 2.38-4.139 1.574-.194 3.058 1.344 3.316 3.436.258 2.091-.807 3.945-2.381 4.138z"/><path d="m1224.8 273.674c-.234-1.419.439-2.834 1.688-3.547.917-.387 1.925-.503 2.906-.337.973.041 1.923.32 2.764.813 1.601 1.069 2.032 3.234.963 4.834-.253.379-.579.705-.958.96-2.576 1.725-6.845.542-7.363-2.723z"/><path d="m1234.16 295.151c.541-2.023 2.214-3.545 4.279-3.89 2.06-.292 4.132.441 5.552 1.962.807.792 1.299 1.848 1.385 2.975-.097 1.946-1.435 3.609-3.316 4.121-3.58 1.12-8.989-.483-7.9-5.168z"/><path d="m1244.817 321.224c.335-1.028.956-1.94 1.791-2.628 1.18-1.137 2.714-1.836 4.347-1.983 1.657-.12 3.24.707 4.091 2.135.729 1.594.421 3.471-.779 4.749-1.213 1.233-2.866 1.932-4.595 1.945-2.552.096-5.732-1.025-4.855-4.218z"/></g><path d="m524.009 416.657s-44.173 19.381-84.759 39.716c-25.616 12.834-196.165 96.059-233.572 110.989s-38.256 28.627-33.815 42.891 3.387 16.391 57.703 13.056c61.883-3.799 154.157-42.139 186.652-53.478s41.441-15.372 51.077-13.106c11.714 2.077 34.739 34.915 29.166 42.757s-100.486 40.982-159.443 64.838c-53.965 21.836-79.023 40.687-86.769 47.678s-26.891 15.106-10.547 22c16.343 6.894 22.804 26.118 130.811-4.631 108.603-30.919 240.149-86.754 283.6-127.379 43.451-40.626-130.104-185.331-130.104-185.331z" fill="#00aee0"/><path d="m677.309 279.193c-1.756-.757-6.362-7.585-11.373-4.957-19.32 10.131-53.846 36.533-93.28 73.613-47.353 44.527-68.259 76.814-73.448 84.914-8.591 13.411-29.872 55.871-13.08 108.354 10.983 34.325 22.419 74.602 38.934 86.008 13.843 9.56 38.671 12.098 80.42-3.808 37-14.097 68.135-24.222 123.453-56.923 72.105-42.624 99.38-58.378 131.848-82.256 31.618-23.253 62.253 20.657 185.603-16.9 91.142-27.751 134.499-91.593 146.696-102.405 3.413-3.025 7.372-7.659 11.355-11.308 1.813-1.661 2.645-4.107 1.711-6.383-1.821-4.439-10.796-18.563-17.874-28.59-11.193-15.856-24.353-30.609-32.774-26.586-8.421 4.022-54.715 66.621-131.711 87.423-88.232 23.837-97.685-5.5-153.547-31.739-13.256-6.226-6.652 7.321-19.077 1.879-11.515-5.045-151.511-60.696-173.856-70.336z" fill="#00aee0"/><path d="m555.963 546.173c-26.027-27.871-43.107-89.816-43.465-109.199-.123-6.649-.546-14.135-6.196-15.599-7.866 2.477-17.565 8.781-27.803 15.874 2.2 13.686 1.366 40.434-.568 68.878-1.792 26.356-11.9 51.03-10.112 51.45 12.637 5.857 33.216 36.337 28.493 42.006-.727.873.097.995.097.995 11.091 7.25 28.852 14.814 60.034 19.94 22.694 3.73 44.396 8.764 63.813 6.386 9.269-4.804 18.792-11.975 25.025-17.285-10.637-4.642-50.574-21.957-89.318-63.446z" fill="#f04e23"/><path d="m644.573 609.608c-.063.166-.922.014-2.507-.431-1.595-.422-3.882-1.217-6.808-2.313-1.452-.571-3.055-1.238-4.812-1.966-1.73-.784-3.629-1.604-5.625-2.574-4.009-1.911-8.477-4.288-13.315-7.095-9.649-5.655-20.658-13.25-31.945-22.82-1.409-1.198-2.839-2.407-4.244-3.677-1.418-1.254-2.853-2.522-4.247-3.894-1.403-1.354-2.844-2.7-4.255-4.103-1.364-1.45-2.741-2.913-4.131-4.39-5.438-6.016-10.612-12.656-15.34-19.827-4.745-7.164-8.724-14.548-12.259-21.793-3.53-7.253-6.544-14.417-9.164-21.314-1.357-3.434-2.526-6.831-3.725-10.11-1.122-3.302-2.256-6.496-3.255-9.608-1.024-3.106-1.993-6.111-2.894-9.005-.918-2.853-1.792-5.758-2.427-8.483-1.314-5.457-2.227-10.408-2.982-14.771-.741-4.363-1.273-8.137-1.629-11.234-.728-6.194-.663-9.683-.316-9.705.363-.026.967 3.334 2.294 9.378.656 3.022 1.471 6.718 2.474 10.992 1.014 4.267 2.173 9.139 3.68 14.409.738 2.65 1.64 5.28 2.676 8.156 1.014 2.845 2.069 5.805 3.161 8.869 1.081 3.068 2.286 6.202 3.473 9.452 1.26 3.217 2.487 6.56 3.885 9.921 2.708 6.764 5.764 13.764 9.279 20.831 3.52 7.06 7.429 14.237 12.035 21.188 4.589 6.96 9.568 13.404 14.779 19.272 1.331 1.442 2.649 2.871 3.956 4.287 1.351 1.372 2.731 2.691 4.072 4.02 1.324 1.34 2.717 2.608 4.093 3.862 1.361 1.27 2.746 2.479 4.109 3.681 10.92 9.598 21.505 17.356 30.751 23.311 4.636 2.957 8.909 5.517 12.734 7.641 1.904 1.078 3.713 2.012 5.358 2.917 1.669.858 3.194 1.643 4.566 2.349 2.769 1.381 4.918 2.453 6.377 3.18 1.454.754 2.19 1.231 2.128 1.397z" fill="#04294f"/><path d="m467.13 557.412c-.345-.161.15-1.793.758-4.722.307-1.468.638-3.28 1.002-5.401.356-2.122.774-4.548 1.19-7.236.436-2.684.922-5.62 1.389-8.779.508-3.151.954-6.533 1.452-10.084.231-1.778.467-3.6.709-5.461.216-1.864.437-3.767.662-5.705.416-3.878.824-7.896 1.171-12.017.344-4.122.643-8.149.867-12.044.136-1.946.218-3.861.31-5.736.102-1.875.186-3.711.241-5.504.157-3.585.222-6.995.323-10.189.038-3.193.141-6.171.153-8.892.041-2.723.078-5.186.111-7.35.039-2.166.103-4.035.153-5.563.122-3.059.357-4.768.712-4.792s.796 1.639 1.29 4.676c.258 1.518.487 3.382.723 5.55.251 2.167.46 4.64.653 7.378.222 2.737.331 5.742.478 8.968.085 3.228.179 6.679.151 10.312.01 1.817-.017 3.679-.07 5.581-.043 1.902-.083 3.844-.187 5.82-.159 3.953-.425 8.042-.775 12.223-.352 4.182-.803 8.255-1.293 12.181-.271 1.96-.538 3.884-.799 5.77-.304 1.878-.601 3.718-.891 5.512-.634 3.579-1.245 6.979-1.942 10.134-.656 3.164-1.355 6.091-2.025 8.754-.65 2.667-1.322 5.06-1.955 7.162-.64 2.099-1.271 3.9-1.893 5.341-1.246 2.895-2.372 4.257-2.668 4.113z" fill="#04294f"/><path d="m619.548 626.893c-.045.699-7.148.963-18.637.694-5.745-.15-12.597-.474-20.2-1.199-7.6-.733-15.949-1.907-24.587-3.704-4.328-.874-8.51-1.884-12.516-2.852-4.015-.976-7.895-1.969-11.58-3.037-3.684-1.064-7.167-2.222-10.366-3.454-3.204-1.222-6.115-2.519-8.726-3.768-2.618-1.24-4.932-2.449-6.945-3.541-2.019-1.083-3.717-2.083-5.101-2.912-2.75-1.685-4.19-2.772-4.033-3.09.158-.32 1.898.159 4.908 1.285 1.51.547 3.33 1.281 5.445 2.105 2.111.835 4.505 1.799 7.161 2.802 2.653 1.013 5.561 2.081 8.717 3.089 3.153 1.019 6.555 1.985 10.184 2.9 3.628.917 7.479 1.8 11.492 2.705 4.024.902 8.151 1.862 12.395 2.718 8.486 1.765 16.633 3.054 24.088 4.034 7.456.971 14.217 1.667 19.907 2.281 11.386 1.199 18.44 2.223 18.394 2.944z" fill="#04294f"/><path d="m206.902 559.557c2.229-.688 101.715-40.074 101.715-40.074s-10.803 26.885-3.947 49.186c5.953 19.365 22.922 33.52 23.91 33.122s-36.597 11.347-115.525 29.531c-14.162 3.263-38.881 23.678-62.496 40.495-15.602 11.111-47.704 16.914-52.807-4.624s14.325-45.892 21.787-56 22.102-33.443 32.115-38.545 27.585-4.554 55.248-13.091z" fill="#f04e23"/><path d="m270.847 687.963c17.056-6.416 91.021-35.032 91.021-35.032s-6.453 18.877 1.353 39.772c8.238 22.052 25.794 32.29 26.755 31.83s-35.937 14.995-113.578 33.458c-14.139 3.362-33.054 26.514-55.553 44.797-14.865 12.08-46.533 19.91-52.994-1.261-6.461-21.17 7.802-44.887 14.607-55.449s23.904-38.905 33.573-44.633c9.668-5.726 20.901-.724 54.816-13.482z" fill="#f04e23"/><path d="m580.055 393.361c1.793.259 13.513-1.771 28.873 9.558 5.473 4.037 16.967 20.33 18.76 24.898 2.066 5.266 13.538 31.256.258 37.956-9.282 4.683-15.293 7.264-21.795 15.812-4.007 5.268-10.526 8.862-18.009 9.613-6.417.644-13.668-.987-20.025 5.436-3.771 3.81-8.013 6.787-12.984 5.018-4.07-1.448-11.132-9.853-17.474-20.845s-21.672-38.853-15.893-50.843c5.778-11.989 58.289-36.603 58.289-36.603z" fill="#ffb400"/><path d="m582.961 488.717c1.408-2.08 1.566-4.705 1.38-7.045-.2-2.52-.692-5.049-1.491-7.414-.77-2.279-1.993-4.525-3.436-6.426-.738-.971-1.534-1.879-2.426-2.715-.922-.863-1.977-1.474-3.015-2.192-.994-.688-2.541.594-1.724 1.619 1.319 1.654 2.397 3.659 3.434 5.514 1.038 1.856 1.85 3.799 2.574 5.806.703 1.946 1.27 3.917 1.545 5.994.288 2.169.247 4.624 1.143 6.611.317.701 1.456 1.075 2.016.248z" fill="#f04e23"/><path d="m608.175 471.527c.744-4.302.682-8.676-.677-12.722-1.312-3.909-3.763-7.647-6.963-10.228-1.388-1.119-3.019.769-2.274 2.136 3.451 6.332 5.983 13.402 6.232 20.83.07 2.059 3.325 2.05 3.682-.016z" fill="#f04e23"/><path d="m628.61 433.078c-1.59-5.875-4.746-10.953-9.102-15.15-4.327-4.169-9.386-6.86-15.283-8.245-1.108-.26-1.488 1.371-.568 1.829 9.623 4.801 17.461 12.992 21.771 22.786.868 1.971 3.739.84 3.182-1.22z" fill="#f04e23"/><path d="m1240.976 245.722c.283-.092.578-.115.861-.199.368-.109.72-.311 1.059-.489.535-.281 1.063-.576 1.583-.884 1.134-.672 2.186-1.424 3.204-2.261.913-.751 1.797-1.525 2.555-2.435.854-1.025 1.714-2.125 1.961-3.456.123-.66-.439-1.475-1.197-1.196-.291.107-.612.193-.886.338-.253.134-.519.371-.711.519-.45.345-.992.733-1.462 1.118-.914.748-1.801 1.53-2.725 2.267-.095.076-.19.151-.285.225-.156.122.147-.107-.119.09-.325.24-.651.48-.969.729-.095.074-.189.149-.284.223.01-.008-.379.295-.237.187.155-.118-.213.159-.245.183-.122.091-.244.18-.367.269-.466.338-.94.665-1.421.98-.253.166-.515.319-.758.5-.224.167-.524.521-.677.638-.575.441-.91 1.096-.594 1.815.278.631 1.013 1.067 1.714.839z" fill="#f04e23"/><path d="m804.135 268.398s-167.171-156.389-295.448-49.515c-93.559 77.948 8.156 212.344 12.826 216.513 7.459 6.66 18.24-1.922 36.274-7.295s36.456-28.244 34.083-38.475c-2.62-11.298-49.299-82.701-23.77-110.146 30.469-32.755 63.589-17.952 74.581-8.942 10.859 8.901 15.438 31.207 17.765 36.62s86.235 108.578 97.971 112.999 78.099-5.017 78.099-5.017l10.81-96.559z" fill="#00aee0"/><path clip-rule="evenodd" d="m837.783 277.137s-28.315 19.352-37.981 24.859c-8.991 5.122-15.005 30.393-5.056 45.826 9.948 15.433 39.806 38.573 51.191 31.413 11.875-7.468 39.129-25.499 52.612-29.372 18.837-5.41-25.763-67.444-25.763-67.444z" fill="#ffb400" fill-rule="evenodd"/><path d="m797.306 304.78c-2.282 2.167-3.184 5.347-4.334 8.191-1.318 3.258-2.461 6.58-3.075 10.045-1.495 8.429-1.14 17.146 1.727 25.26 5.534 15.666 18.069 28.794 33.727 34.454 2.812 1.016 5.672 1.816 8.616 2.337 1.442.255 2.931.6 4.398.458.514-.05 1-.093 1.481-.263.688-.243-.417-.094.186-.07.532.021 1.072-.016 1.605-.017 2.176-.005 3.279-3.254 1.162-4.291-.367-.18-.736-.357-1.106-.533-.171-.081-.363-.207-.547-.258.266.074.41.365.173.144-.098-.091-.196-.184-.298-.271-1.154-.992-2.541-1.495-3.982-1.922-2.314-.686-4.638-1.372-6.923-2.149-.624-.212-1.244-.434-1.861-.666-.296-.111-.59-.225-.884-.341-.228-.09-1.505-.633-.436-.167-1.324-.577-2.64-1.175-3.933-1.819-1.43-.712-2.827-1.489-4.184-2.332-.69-.429-1.371-.874-2.04-1.335-.32-.221-.638-.446-.953-.674-.162-.117-1.336-1.008-.687-.501-6.652-5.204-11.878-11.527-15.571-19.038-3.505-7.128-4.769-14.85-4.095-22.774.307-3.607.895-7.065 1.787-10.808.76-3.192 2.394-6.393 2.326-9.715-.022-1.171-1.436-1.746-2.279-.945z" fill="#04294f"/><path d="m329.135 602.231c-.226.275-1.392-.313-3.336-1.635-.486-.331-1.02-.707-1.6-1.127-.581-.419-1.217-.872-1.82-1.447-1.242-1.112-2.642-2.406-4.177-3.862-1.389-1.585-2.96-3.301-4.513-5.255-.72-1.022-1.466-2.079-2.233-3.167-.375-.552-.785-1.093-1.143-1.679-.339-.598-.682-1.203-1.029-1.816-.671-1.24-1.448-2.47-2.065-3.814-.595-1.356-1.202-2.741-1.82-4.151-.335-.696-.536-1.449-.793-2.189-.244-.744-.49-1.495-.738-2.25-.547-1.499-.871-3.082-1.234-4.674-.179-.796-.357-1.588-.534-2.375-.142-.792-.229-1.588-.343-2.374-.105-.787-.209-1.568-.313-2.343-.047-.388-.11-.773-.142-1.158-.02-.387-.04-.771-.059-1.155-.071-1.532-.161-3.038-.194-4.51.051-1.47.1-2.91.149-4.314.014-.351.028-.699.042-1.045.038-.344.076-.686.114-1.025.077-.678.153-1.348.228-2.007.154-1.318.282-2.599.55-3.814.239-1.218.469-2.394.69-3.524.234-1.125.567-2.182.833-3.198.288-1.012.536-1.98.833-2.878.322-.889.625-1.727.909-2.511.297-.776.573-1.5.828-2.165.282-.655.574-1.24.831-1.768 1.043-2.104 1.773-3.192 2.106-3.068s.241 1.445-.202 3.698c-.117.56-.247 1.182-.389 1.863-.124.683-.258 1.425-.402 2.223-.157.791-.325 1.635-.504 2.531-.166.896-.286 1.855-.451 2.85-.144 1-.359 2.034-.48 3.125-.119 1.09-.242 2.224-.37 3.398-.167 1.168-.202 2.387-.27 3.638-.035.625-.07 1.258-.106 1.901-.019.321-.038.644-.057.969.003.325.007.653.011.982.009 1.316.018 2.664.027 4.042.1 1.37.201 2.769.305 4.192l.076 1.072c.038.357.104.712.154 1.071.107.716.214 1.438.323 2.165.113.726.197 1.463.333 2.195.167.725.334 1.455.503 2.189.335 1.469.618 2.935 1.113 4.318.219.7.435 1.395.65 2.084.225.686.391 1.388.689 2.035.533 1.318 1.056 2.613 1.568 3.881.525 1.264 1.203 2.427 1.768 3.608.292.587.581 1.167.866 1.739.303.562.658 1.086.975 1.621.646 1.067 1.274 2.103 1.88 3.104 1.314 1.939 2.64 3.687 3.783 5.344 1.293 1.534 2.452 2.944 3.457 4.207.483.65 1.004 1.188 1.47 1.7.465.513.885.988 1.257 1.424 1.49 1.745 2.222 2.854 1.996 3.129z" fill="#04294f"/><path d="m390.522 724.983c-.235.267-1.309-.26-3.066-1.458-.864-.614-1.959-1.331-3.094-2.317-1.148-.972-2.449-2.093-3.855-3.372-1.339-1.345-2.833-2.801-4.35-4.452-.732-.85-1.49-1.73-2.27-2.636-.385-.458-.789-.913-1.173-1.394-.37-.493-.745-.993-1.125-1.5-.75-1.021-1.55-2.045-2.298-3.143-.717-1.121-1.45-2.266-2.195-3.431-.385-.576-.729-1.185-1.057-1.81-.336-.621-.674-1.247-1.015-1.878-.335-.633-.689-1.264-1.013-1.915-.297-.666-.596-1.336-.897-2.01-.594-1.352-1.22-2.67-1.657-4.049-.456-1.368-.992-2.685-1.345-4.039-.346-1.354-.686-2.685-1.019-3.988-.258-1.32-.448-2.627-.658-3.894-.248-1.261-.276-2.522-.373-3.734-.07-1.215-.202-2.388-.13-3.533.035-1.139.068-2.239.1-3.296.042-1.054.231-2.059.339-3.017.141-.956.227-1.869.411-2.718.206-.843.4-1.638.582-2.381.196-.735.378-1.42.545-2.05.219-.617.442-1.173.644-1.67.816-1.99 1.423-3.016 1.763-2.915.341.102.387 1.315.189 3.375-.057.511-.12 1.08-.19 1.702-.034.624-.071 1.302-.11 2.03-.053.721-.11 1.491-.171 2.308-.052.815-.011 1.684-.031 2.586.012.905-.063 1.846.002 2.829.062.979.127 1.999.194 3.054.017 1.055.23 2.133.369 3.246.167 1.11.253 2.261.549 3.412.258 1.156.484 2.346.766 3.55.345 1.189.698 2.404 1.058 3.641.353 1.237.881 2.448 1.315 3.705.414 1.266 1.01 2.487 1.56 3.743.277.627.552 1.25.825 1.87.299.608.625 1.2.931 1.795.309.594.615 1.185.919 1.77.294.591.603 1.168.952 1.718.666 1.119 1.32 2.218 1.961 3.294.666 1.063 1.381 2.066 2.039 3.071.333.501.661.996.985 1.484.337.479.694.937 1.032 1.397.678.921 1.337 1.815 1.973 2.68 1.341 1.689 2.59 3.263 3.73 4.7 1.196 1.396 2.282 2.664 3.213 3.806.916 1.157 1.795 2.072 2.438 2.901 1.318 1.63 1.943 2.666 1.708 2.933z" fill="#04294f"/><path d="m229.543 787.808c.107-.859.167-1.715.198-2.58.022-.604-.006-1.096-.097-1.712-.019-.128-.22-1.51-.12-.782-.285-2.067-1.116-3.915-2.137-5.723-1.725-3.054-4.037-5.992-6.766-8.21-1.507-1.225-3.053-2.367-4.775-3.269-.312-.164-.627-.322-.945-.474-.413-.199-.834-.382-1.262-.548-.437-.158-.892-.239-1.364-.242.791.294-.106-.175-.299-.242-.446-.153-.884-.273-1.347-.365-1.726-.344-3.563-.576-5.327-.482-.839.045-1.6.108-2.436.123-1.095.02-1.924.413-2.902.843-1.395.614-.698 2.411.374 2.859.818.342 1.37.638 2.273.777.745.115 1.277.375 1.978.667 1.115.464 2.453 1.161 3.63 1.812.305.169.614.325.923.486.207.107.412.218.616.33-.367-.267-.314-.221.16.137.693.535 1.455.938 2.191 1.409.643.411 1.274.846 1.897 1.287.142.101 1.128.867.445.317.275.221.547.445.815.674 1.162.995 2.284 2.027 3.303 3.17.234.262.463.529.687.799.132.16.654.855.253.309.486.662.95 1.337 1.379 2.037.366.598.704 1.211 1.025 1.835.161.313.324.615.502.917.111.188 1.174 1.893.761 1.16.72 1.277 1.53 2.493 2.175 3.815.431.885 1.635 1.283 2.541 1.034 1.033-.283 1.527-1.171 1.651-2.168z" fill="#04294f"/><path d="m161.996 657.331c2.347-2.621 1.805-7.417.756-10.547-1.226-3.663-3.609-6.705-6.634-9.042-3.047-2.354-6.781-3.89-10.542-4.648-1.212-.244-2.327-.38-3.559-.31-.705.04-1.603-.115-2.44-.195-1.842-.176-3.689-.284-5.537-.386-2.444-.135-2.836 3.539-.567 4.189 1.589.456 3.177.917 4.751 1.424.755.243 1.498.543 2.258.764-.344-.239-.395-.265-.153-.078.28.227.564.448.853.664.47.275 1.122.461 1.642.668.474.189.983.425 1.657.747.703.336 1.417.65 2.112 1.002 1.445.734 2.719 1.668 4.084 2.524.384.241-.368-.331.209.159.293.249.585.497.867.758.518.479 1.005.99 1.511 1.482.505.49.97 1.004 1.441 1.525.583.646-.142-.266.312.397.215.314.423.628.629.948.72 1.114 1.371 2.172 1.691 3.137.442 1.334.458 2.906 1.161 4.367.605 1.258 2.592 1.463 3.498.451z" fill="#04294f"/><path clip-rule="evenodd" d="m926.16 75.15c.749-1.604-70.479 52.79-91.909 195.301-.817 5.434-3.162 9.965-6.594 14.161 4.534 4.674 6.972 11.163 10.374 16.767 5.3 8.731 11.337 17.105 17.499 25.241 4.618 6.099 9.182 13.394 15.237 18.166 6.16 4.854 14.433 4.546 21.841 6.526 1.135-.874 2.173-1.69 3.094-2.427l5.036 1.856c29.557 10.109 84.332 24.62 116.141-40.046 22.866-46.486 81.143-151.039 81.143-151.039z" fill="#ffb400" fill-rule="evenodd"/><path clip-rule="evenodd" d="m1124.817 71.12c68.066 93.072-13.922 143.685-37.87 142.568-33.7-1.572-67.712-38.322-79.532-49.483s-27.231-20.043-43.447-18.835c-17.388 1.295-32.046 13.916-41.972 28.277-10.39 15.031-11.253 20.662-21.413 35.827-1 1.571-2.637 2.625-4.479 2.885-5.276.587-6.698-6.627-5.28-11.43 2.723-9.228 9.313-16.972 11.855-26.252 2.892-10.56-3.082-25.442-15.63-21.855-3.948 1.211-7.303 3.856-9.405 7.415-16.981 27.696-28.351 58.461-33.459 90.54-1.737 10.938-11.008 31.454-15.535 28.946s-29.311-55.851 5.125-107.18c3.356-4.909 4.357-11.055 2.733-16.771-13.08-44.356 11.555-99.124 33.085-117.165 29.972-25.117 86.747-44.938 124.929-36.723 22.341 4.806 82.695 19.514 103.164 82.314 6.09 18.687 10.745-35.484 27.131-13.078z" fill="#04294f" fill-rule="evenodd"/><path d="m890.021 175.746c.467-1.306.689-2.688.654-4.074.044-1.181-.631-2.27-1.707-2.754-1.216-.353-2.686.561-3.922 1.586-2.183 1.834-4.066 3.997-5.583 6.411-1.254 1.844-2.102 3.934-2.487 6.131-.583 4.427 2.655 6.649 6.168 4.263 3.152-2.141 5.728-7.892 6.877-11.563z" fill="#04294f"/><path d="m866.521 324.337c-.409.276-.491.977-.271 2.033.131.624.325 1.233.578 1.817.308.766.667 1.51 1.074 2.227 1.049 1.86 2.279 3.612 3.672 5.231.796.9 1.635 1.853 2.592 2.747.934.923 1.971 1.801 3.045 2.684 1.103.847 2.192 1.66 3.301 2.361 1.087.732 2.205 1.333 3.261 1.905 1.89.992 3.873 1.794 5.922 2.395.79.235 1.596.416 2.41.543.626.115 1.263.166 1.9.153 1.078-.025 1.742-.263 1.917-.724s-.15-1.099-.861-1.849c-.358-.37-.81-.775-1.333-1.23-.525-.45-1.144-.902-1.808-1.428-1.335-.985-2.924-2.159-4.688-3.46-.86-.663-1.79-1.311-2.711-2.042-.927-.717-1.887-1.459-2.871-2.219-.963-.786-1.902-1.554-2.81-2.296-.92-.731-1.76-1.492-2.6-2.181-1.666-1.425-3.167-2.708-4.429-3.786-.663-.528-1.242-1.029-1.799-1.439-.561-.408-1.057-.756-1.499-1.021-.889-.524-1.584-.696-1.992-.421z" fill="#f04e23"/><path d="m1048.725 180.343c-.19.175-.201.527-.042 1.045.243.713.579 1.39 1.001 2.014.628.977 1.331 1.904 2.103 2.772 1.014 1.157 2.105 2.244 3.266 3.253 1.411 1.232 2.9 2.372 4.458 3.411 3.812 2.512 7.967 4.459 12.336 5.782 4.955 1.518 10.127 2.205 15.308 2.034 4.565-.135 9.087-.929 13.427-2.358 1.777-.596 3.514-1.307 5.199-2.128 1.386-.671 2.725-1.435 4.008-2.287.973-.636 1.895-1.347 2.759-2.126.571-.492 1.073-1.058 1.495-1.683.29-.457.372-.8.234-1.019-.137-.219-.487-.303-1.017-.27-.717.082-1.425.223-2.119.422-.88.231-1.925.546-3.131.89-1.203.348-2.562.736-4.067 1.111-1.5.389-3.152.741-4.919 1.082-1.777.299-3.668.607-5.669.777-2.083.196-4.175.281-6.267.254-4.472-.039-8.921-.63-13.247-1.76-2.026-.52-4.023-1.148-5.981-1.882-1.887-.687-3.63-1.477-5.267-2.23-1.615-.79-3.118-1.561-4.462-2.329-1.353-.754-2.563-1.485-3.632-2.134-1.074-.646-1.999-1.223-2.787-1.676-.617-.373-1.264-.694-1.934-.96-.503-.171-.863-.18-1.053-.005z" fill="#00aee0"/><path d="m1045.874 37.556c-.26.447-.03 1.169.572 2.069.305.445.698.943 1.147 1.515.453.566 1.006 1.141 1.574 1.822 1.178 1.303 2.538 2.846 4.013 4.55.709.88 1.501 1.751 2.237 2.726.776.941 1.515 1.963 2.305 2.984.738 1.059 1.493 2.069 2.159 3.09.711.994 1.307 2.01 1.934 2.95 1.187 1.917 2.253 3.676 3.145 5.19.48.745.864 1.444 1.269 2.046.411.6.769 1.124 1.103 1.547.679.843 1.3 1.277 1.802 1.162.503-.115.842-.776 1.011-1.911.101-.672.128-1.354.08-2.032-.032-.882-.132-1.761-.296-2.628-.415-2.255-1.085-4.456-1.998-6.558-.536-1.244-1.144-2.456-1.819-3.63-1.428-2.541-3.161-4.898-5.158-7.019-.919-.994-1.894-1.935-2.92-2.818-1.733-1.498-3.632-2.793-5.659-3.86-.778-.415-1.586-.771-2.418-1.065-.632-.247-1.29-.424-1.961-.527-1.132-.177-1.862-.049-2.122.397z" fill="#00aee0"/><path d="m974.277 28.854c-.048.491.466 1.026 1.401 1.57.469.266 1.041.543 1.7.858.659.31 1.414.59 2.23.95 1.646.658 3.572 1.442 5.681 2.316 1.043.47 2.156.901 3.27 1.439 1.133.494 2.274 1.07 3.459 1.623 1.16.606 2.31 1.162 3.391 1.762 1.104.559 2.123 1.181 3.129 1.725 1.975 1.145 3.767 2.199 5.289 3.107.782.43 1.463.86 2.109 1.195.65.332 1.218.619 1.714.829 1 .413 1.737.496 2.098.16s.309-1.063-.12-2.115c-.255-.624-.573-1.22-.949-1.778-.467-.741-.986-1.448-1.551-2.116-1.46-1.742-3.098-3.326-4.888-4.726-1.055-.83-2.154-1.604-3.29-2.319-1.172-.764-2.449-1.447-3.766-2.13-1.341-.631-2.66-1.231-3.978-1.698-1.258-.469-2.54-.871-3.84-1.206-2.199-.572-4.453-.911-6.724-1.013-.874-.044-1.751-.026-2.623.052-.672.04-1.339.149-1.989.326-1.096.299-1.705.699-1.753 1.189z" fill="#00aee0"/><path d="m1008.688 48.832c-1.047 1.783 1.526 5.24 5.747 7.721 4.222 2.481 8.493 3.047 9.54 1.264 1.048-1.783-1.526-5.24-5.747-7.721-4.222-2.481-8.493-3.047-9.54-1.264z" fill="#00aee0"/><path d="m934.109 39.627c.168.463.741.769 1.593.938.425.079.922.132 1.489.189.564.052 1.18.046 1.863.087 1.32.028 2.889.062 4.632.1.857.053 1.75.047 2.672.129.923.038 1.872.141 2.846.207.97.119 1.921.196 2.834.332.922.092 1.797.267 2.649.376 1.718.291 3.266.553 4.567.773.679.088 1.282.21 1.846.265.567.051 1.066.092 1.498.095.869-.006 1.49-.198 1.743-.622.253-.423.108-1.042-.409-1.819-.303-.455-.661-.871-1.066-1.237-.505-.489-1.051-.934-1.631-1.33-1.499-1.033-3.125-1.867-4.838-2.482-1.01-.366-2.043-.668-3.092-.902-2.253-.527-4.567-.747-6.879-.653-1.075.033-2.146.134-3.208.304-1.799.282-3.555.795-5.223 1.527-.646.28-1.266.614-1.855.999-.467.284-.898.625-1.281 1.014-.657.667-.917 1.247-.75 1.71z" fill="#00aee0"/><path d="m952.961 51.978c-.224 2.055 5.217 4.33 12.155 5.08 6.938.751 12.744-.307 12.969-2.363.224-2.055-5.218-4.33-12.156-5.08-6.938-.751-12.744.307-12.968 2.363z" fill="#00aee0"/><path d="m888.087 55.888c.4.326 1.091.279 1.967-.05.434-.169.921-.403 1.475-.671.55-.272 1.115-.627 1.77-.975 1.241-.718 2.717-1.573 4.355-2.521.827-.433 1.654-.941 2.56-1.382.882-.483 1.823-.919 2.769-1.403.971-.432 1.901-.892 2.83-1.275.912-.428 1.826-.753 2.682-1.126 1.767-.68 3.358-1.293 4.696-1.808.681-.291 1.312-.509 1.869-.765.557-.262 1.044-.496 1.448-.727.806-.475 1.276-.984 1.276-1.501-.001-.517-.48-.993-1.392-1.41-.535-.245-1.097-.424-1.676-.532-.74-.165-1.493-.267-2.251-.306-1.962-.11-3.931.031-5.859.419-1.139.226-2.263.524-3.365.892-2.38.768-4.646 1.852-6.739 3.223-.978.627-1.916 1.315-2.808 2.06-1.513 1.258-2.861 2.703-4.01 4.301-.447.614-.841 1.265-1.178 1.946-.279.519-.494 1.069-.641 1.64-.248.972-.179 1.646.222 1.971z" fill="#00aee0"/><path d="m892.037 92.959c.433.28 1.082.195 1.869-.174.992-.516 1.928-1.133 2.794-1.841 1.058-.836 2.258-1.843 3.541-2.975 1.276-1.125 2.677-2.361 4.149-3.658 1.472-1.296 2.875-2.531 4.151-3.654 1.286-1.13 2.436-2.194 3.398-3.138.812-.77 1.542-1.621 2.18-2.541.435-.504.589-1.193.41-1.833-.222-.466-.815-.72-1.722-.766-.527-.024-1.055.011-1.574.106-.663.105-1.316.26-1.956.463-1.641.52-3.221 1.217-4.711 2.08-.879.503-1.732 1.052-2.555 1.643-.864.605-1.709 1.297-2.559 2.024-.828.752-1.622 1.502-2.331 2.284-.69.742-1.342 1.519-1.953 2.328-1.044 1.371-1.935 2.851-2.659 4.414-.283.609-.52 1.239-.708 1.883-.159.503-.262 1.023-.305 1.549-.068.905.108 1.526.541 1.806z" fill="#00aee0"/><path d="m832.949 226.799c.514-.048.965-.716 1.341-1.838.181-.561.356-1.236.563-2.011.2-.774.345-1.645.58-2.598.206-.953.405-1.989.672-3.088.216-1.104.536-2.264.814-3.485.142-.61.337-1.226.497-1.86.156-.635.337-1.277.545-1.925.361-1.309.827-2.634 1.261-4.004.504-1.347.955-2.676 1.479-3.93.236-.638.489-1.256.759-1.852.265-.598.492-1.202.756-1.77.534-1.133.999-2.243 1.51-3.245.468-1.03.95-1.967 1.376-2.845.403-.896.826-1.671 1.147-2.403.315-.738.595-1.377.798-1.93.396-1.115.452-1.919.078-2.273-.375-.355-1.151-.224-2.262.35-.662.34-1.285.749-1.861 1.22-.772.589-1.499 1.234-2.177 1.929-.835.826-1.615 1.705-2.335 2.634-.842 1.056-1.623 2.158-2.341 3.302-.389.599-.731 1.245-1.102 1.894-.383.66-.732 1.339-1.047 2.035-1.41 2.89-2.464 5.941-3.137 9.085-.184.755-.328 1.504-.431 2.247-.108.74-.237 1.459-.301 2.17-.141 1.343-.206 2.692-.195 4.042-.006 1.174.066 2.348.214 3.513.104.965.279 1.921.523 2.86.162.726.4 1.432.712 2.108.52 1.135 1.05 1.716 1.564 1.668z" fill="#00aee0"/><path d="m1102.283 169.46c.059.251.332.439.806.565.659.153 1.336.208 2.011.163 1.036-.045 2.067-.18 3.08-.405 1.344-.288 2.665-.679 3.95-1.169 1.568-.593 3.09-1.302 4.555-2.118 3.566-2.018 6.778-4.607 9.509-7.664 3.122-3.467 5.561-7.494 7.186-11.868 1.444-3.837 2.249-7.883 2.385-11.979.046-1.677-.032-3.354-.232-5.019-.161-1.366-.426-2.718-.794-4.043-.27-1.002-.627-1.979-1.067-2.919-.273-.619-.635-1.194-1.076-1.708-.331-.363-.624-.517-.874-.453s-.447.341-.593.799c-.163.62-.27 1.254-.32 1.894-.081.798-.14 1.752-.227 2.843-.083 1.09-.179 2.316-.337 3.654-.143 1.338-.372 2.785-.648 4.318-.318 1.528-.665 3.147-1.174 4.805-.511 1.73-1.127 3.428-1.842 5.084-1.51 3.539-3.513 6.847-5.949 9.825-1.136 1.402-2.355 2.734-3.651 3.988-1.234 1.219-2.507 2.277-3.714 3.266-1.23.955-2.407 1.828-3.526 2.575-1.112.76-2.154 1.413-3.082 1.991-.927.583-1.744 1.077-2.414 1.518-.543.34-1.055.729-1.53 1.16-.337.344-.492.646-.432.897z" fill="#00aee0"/><path d="m1065.071 132.58c-.225.22-.328.536-.277.846.042.533.176 1.055.398 1.542.771 1.695 1.849 3.232 3.179 4.535.902.92 1.879 1.764 2.92 2.524 2.564 1.843 5.438 3.21 8.486 4.035 3.478.958 7.117 1.186 10.689.671 3.129-.437 6.155-1.433 8.933-2.942 1.129-.623 2.206-1.338 3.218-2.138 1.486-1.125 2.751-2.516 3.732-4.101.282-.455.482-.956.591-1.48.09-.301.028-.628-.168-.874-.243-.198-.561-.278-.869-.22-.494.066-.979.188-1.447.362-1.14.405-2.659 1.052-4.495 1.739-.916.348-1.928.677-3.003 1.009-1.087.3-2.236.617-3.461.842-2.612.514-5.277.698-7.933.55-1.364-.097-2.72-.28-4.061-.547-1.265-.255-2.513-.586-3.739-.99-1.187-.376-2.285-.834-3.326-1.268-1.024-.463-1.985-.916-2.85-1.376-1.734-.911-3.158-1.743-4.238-2.287-.441-.231-.907-.413-1.389-.54-.298-.098-.623-.058-.89.108z" fill="#00aee0"/><path d="m1022.702 220.736c.211.213.498.333.798.335.438.015.877-.019 1.309-.1.516-.084 1.105-.211 1.772-.34.663-.132 1.397-.276 2.199-.39.797-.128 1.667-.205 2.58-.266.962-.043 1.925-.028 2.885.045 1.029.079 2.05.243 3.052.49 2.099.495 4.077 1.41 5.814 2.689.836.604 1.622 1.276 2.349 2.008.677.684 1.313 1.408 1.902 2.169.544.735 1.048 1.448 1.467 2.138.431.685.797 1.337 1.126 1.928.334.591.617 1.122.887 1.57.218.381.477.737.772 1.062.195.227.473.368.771.39.3-.023.571-.185.735-.438.291-.392.502-.837.619-1.311.193-.7.296-1.421.307-2.146.024-.959-.057-1.918-.243-2.86-.223-1.152-.565-2.277-1.021-3.357-1.148-2.661-2.895-5.02-5.105-6.893-2.546-2.182-5.647-3.617-8.959-4.144-2.859-.471-5.788-.274-8.56.574-1.119.353-2.198.82-3.221 1.396-.838.468-1.621 1.027-2.337 1.666-.546.478-1.03 1.023-1.439 1.623-.285.396-.489.845-.599 1.32-.088.286-.036.598.14.842z" fill="#04294f"/><path d="m964.469 193.992c.235.212.55.31.864.269.501-.039.998-.128 1.482-.264.593-.152 1.276-.359 2.06-.569.779-.215 1.65-.445 2.61-.641.953-.212 2.003-.364 3.112-.495 1.173-.112 2.351-.148 3.528-.107 1.271.045 2.535.199 3.779.459 2.622.525 5.105 1.593 7.288 3.136 1.045.724 2.025 1.536 2.931 2.428.839.826 1.623 1.706 2.348 2.635.668.895 1.279 1.762 1.78 2.6.517.832.948 1.623 1.328 2.336.386.713.706 1.352 1.003 1.887.234.445.511.866.827 1.258.186.256.474.417.789.442.314-.048.582-.251.715-.539.278-.479.466-1.005.554-1.551.155-.824.213-1.662.173-2.499-.043-1.111-.202-2.214-.473-3.291-.328-1.319-.787-2.601-1.37-3.828-.688-1.417-1.523-2.758-2.491-4-1.084-1.392-2.33-2.649-3.711-3.744-3.013-2.42-6.626-3.974-10.454-4.499-1.746-.25-3.515-.291-5.271-.121-1.568.151-3.116.467-4.618.941-1.292.42-2.539.969-3.723 1.637-.969.544-1.88 1.187-2.716 1.919-.636.546-1.205 1.165-1.697 1.843-.336.44-.589.938-.745 1.469-.12.294-.082.628.098.889z" fill="#04294f"/><ellipse cx="1028.091" cy="247.086" fill="#04294f" rx="20.212" ry="9.736" transform="matrix(.4045 -.9145 .9145 .4045 386.2461 1087.3579)"/><ellipse cx="974.205" cy="222.267" fill="#04294f" rx="20.212" ry="9.736" transform="matrix(.4045 -.9145 .9145 .4045 376.8551 1023.2989)"/><ellipse clip-rule="evenodd" cx="980.802" cy="213.397" fill="#fff" fill-rule="evenodd" rx="5.674" ry="4.413" transform="matrix(.4299 -.9029 .9029 .4299 366.4919 1007.2071)"/><ellipse clip-rule="evenodd" cx="968.401" cy="220.017" fill="#fff" fill-rule="evenodd" rx="3.783" ry="2.773" transform="matrix(.2994 -.9541 .9541 .2994 468.5309 1078.1178)"/><ellipse clip-rule="evenodd" cx="1034.543" cy="236.902" fill="#fff" fill-rule="evenodd" rx="5.674" ry="4.413" transform="matrix(.3514 -.9362 .9362 .3514 449.2032 1122.2145)"/><path clip-rule="evenodd" d="m1019.384 245.173c.625-1.993 2.317-3.238 3.778-2.779s2.139 2.446 1.513 4.44c-.625 1.993-2.317 3.238-3.778 2.779s-2.138-2.447-1.513-4.44z" fill="#fff" fill-rule="evenodd"/><path d="m976.209 320.93c-7.155.791-14.375-.991-21.099-3.544-8.791-3.335-17.304-8.229-22.857-15.811-5.554-7.582-7.597-18.228-3.216-26.542.755-1.406 1.704-2.699 2.819-3.841 5.163-5.306 14.073-8.373 20.084-3.758 3.434 2.647 5.519 8.519 9.407 11.567 4.047 3.184 8.723 5.474 13.72 6.716 5.379 1.327 11.337 1.523 15.74 4.88 5.712 4.38 6.717 13.281 3.198 19.557-.175.307-.343.589-.535.875-3.649 5.761-10.438 9.155-17.261 9.901z" fill="#04294f"/><path d="m991.344 305.553c-17.7-5.089-33.865-12.034-47.277-24.655-4.095-3.66-6.142-7.416-9.417-11.825 5.163-5.306 11.276-6.251 17.287-1.636 3.434 2.647 5.519 8.519 9.407 11.567 4.047 3.184 8.723 5.474 13.72 6.716 5.379 1.327 11.337 1.523 15.74 4.88 5.803 5.498 5.906 9.094 4.908 15.207-.174.309-3.318.052-4.368-.254z" fill="#fff"/><path d="m708.28 485.036c.467.366-.212 2.089-1.862 4.92-.412.708-.885 1.484-1.417 2.326-.544.831-1.176 1.7-1.85 2.642-1.366 1.866-2.902 4.023-4.806 6.227-.943 1.113-1.931 2.279-2.961 3.494-1.042 1.206-2.201 2.387-3.372 3.644-2.319 2.538-4.994 5.048-7.799 7.71-1.406 1.326-2.932 2.589-4.454 3.924-.767.66-1.543 1.328-2.326 2.001-.81.641-1.627 1.288-2.452 1.94-1.667 1.283-3.308 2.667-5.09 3.912-1.771 1.261-3.567 2.542-5.385 3.837-1.874 1.213-3.726 2.412-5.551 3.594-1.814 1.199-3.705 2.214-5.511 3.292-.911.527-1.813 1.049-2.707 1.565-.915.48-1.821.956-2.717 1.426-1.802.923-3.538 1.877-5.288 2.696-3.507 1.628-6.826 3.191-10.04 4.413-1.599.625-3.125 1.269-4.629 1.793-1.509.51-2.957.999-4.339 1.466-2.75.959-5.321 1.592-7.559 2.175-1.123.28-2.165.548-3.137.748-.978.184-1.875.337-2.684.46-3.24.492-5.092.488-5.26-.081s1.359-1.647 4.231-3.1c1.438-.7 3.198-1.557 5.24-2.551 2.034-.996 4.389-2.002 6.916-3.291 1.273-.613 2.608-1.256 3.998-1.925 1.389-.666 2.799-1.438 4.281-2.18 2.979-1.454 6.063-3.199 9.341-4.953 1.636-.882 3.26-1.885 4.952-2.843.843-.484 1.696-.974 2.556-1.468.843-.523 1.694-1.052 2.552-1.586 1.706-1.084 3.5-2.092 5.225-3.269 1.744-1.146 3.513-2.308 5.304-3.485 1.753-1.231 3.485-2.448 5.193-3.648 1.729-1.17 3.327-2.467 4.963-3.654.812-.602 1.617-1.198 2.415-1.789.776-.618 1.545-1.23 2.306-1.836 1.514-1.22 3.045-2.361 4.467-3.558 2.838-2.401 5.596-4.626 8.045-6.86 1.236-1.104 2.472-2.131 3.603-3.177 1.134-1.046 2.223-2.05 3.262-3.008 2.128-1.875 3.932-3.694 5.606-5.219 1.677-1.533 3.121-2.853 4.302-3.933 2.406-2.133 3.971-3.156 4.438-2.791z" fill="#04294f"/><path d="m661.635 556.309c-.238.542-1.124.746-2.572.624-.728-.053-1.588-.201-2.541-.49-.956-.28-2.06-.602-3.193-1.127-.574-.25-1.173-.522-1.795-.815-.619-.297-1.226-.663-1.871-1.025-1.303-.708-2.588-1.62-3.946-2.588-.676-.486-1.317-1.048-1.993-1.6-.334-.281-.671-.565-1.012-.852-.322-.307-.646-.617-.974-.93-1.336-1.231-2.578-2.643-3.835-4.101-1.184-1.518-2.324-3.013-3.271-4.563-.243-.383-.483-.762-.721-1.138-.214-.39-.427-.777-.637-1.159-.408-.771-.833-1.509-1.178-2.268-.683-1.521-1.326-2.96-1.765-4.376-.229-.703-.469-1.37-.639-2.036-.166-.667-.315-1.307-.448-1.919-.293-1.213-.393-2.359-.48-3.352-.096-.99-.073-1.863.017-2.587.164-1.444.537-2.272 1.115-2.399.579-.127 1.309.451 2.118 1.552.396.553.826 1.233 1.334 2.009.499.777.967 1.681 1.578 2.636.292.482.587.988.884 1.515.301.526.66 1.052.992 1.609.645 1.125 1.436 2.265 2.202 3.488.386.61.838 1.202 1.256 1.829.211.312.424.627.639.945.231.308.465.618.7.932.901 1.28 1.932 2.527 2.946 3.837 1.086 1.25 2.107 2.506 3.186 3.64.261.292.52.582.776.869.27.273.538.544.802.812.533.532 1.025 1.091 1.548 1.589 1.05.99 2.013 1.989 2.99 2.842.482.435.927.89 1.384 1.288.459.395.897.783 1.313 1.164.817.786 1.612 1.421 2.276 2.063.661.65 1.243 1.205 1.708 1.701.921 1.009 1.345 1.838 1.107 2.381z" fill="#04294f"/><path d="m719.182 545.354c-.06.291-.499.486-1.292.589-.788.085-1.952.155-3.403-.005-.728-.071-1.536-.168-2.42-.292-.879-.141-1.822-.344-2.841-.557-2.028-.455-4.316-1.096-6.786-1.98-2.479-.866-5.124-2.005-7.901-3.365-2.75-1.404-5.644-3.016-8.536-4.945-2.884-1.935-5.844-4.084-8.706-6.554-2.872-2.456-5.707-5.16-8.43-8.094-2.701-2.945-5.165-5.964-7.402-8.974-2.25-3.003-4.213-6.034-6.004-8.956-1.79-2.925-3.322-5.792-4.703-8.494-1.349-2.718-2.53-5.28-3.512-7.656-1.972-4.75-3.265-8.701-3.933-11.512-.347-1.4-.514-2.527-.554-3.32-.035-.795.078-1.266.352-1.38.273-.115.694.133 1.242.705.553.57 1.212 1.475 2.021 2.649 1.593 2.362 3.692 5.848 6.285 10.104 1.293 2.13 2.736 4.436 4.292 6.894 1.587 2.438 3.271 5.041 5.144 7.696 1.875 2.653 3.86 5.417 6.055 8.161 2.184 2.751 4.524 5.526 7.03 8.26 2.518 2.711 5.091 5.244 7.666 7.592 2.565 2.362 5.189 4.462 7.724 6.417 2.542 1.949 5.069 3.645 7.462 5.201 2.417 1.511 4.711 2.87 6.862 4.016 2.143 1.165 4.129 2.146 5.892 2.993.886.424 1.711.818 2.47 1.181.769.342 1.471.67 2.102.981 1.257.64 2.26 1.086 2.91 1.543.653.44.974.811.914 1.102z" fill="#04294f"/><path d="m789.311 514.861c-.393.453-2.778-.866-6.947-3.409-4.164-2.553-10.109-6.352-17.425-11.115-3.656-2.385-7.654-5.011-11.93-7.873-2.139-1.433-4.346-2.921-6.618-4.491-1.137-.788-2.288-1.592-3.469-2.451l-.447-.328-.254-.188-.395-.313c-.529-.418-1.077-.829-1.494-1.33-.238-.234-.444-.482-.619-.742-.175-.259-.404-.504-.476-.823l-.266-.929c-.059-.316-.08-.646-.116-.971l.042-1.015c.034-.341.093-.686.139-1.03.041-.327.115-.736.164-.97l.114-.594c.157-.772.322-1.527.493-2.264.346-1.45.696-2.917 1.049-4.398.7-2.915 1.397-5.856 1.914-8.77.255-1.45.463-2.901.546-4.237.023-.336.038-.662.036-.965.002-.155.009-.316-.003-.448l-.013-.311c-.005-.006-.01-.01-.015-.011s-.014.002-.014.002l-.004.003-.002.004c.034-.002-.103 0-.158 0l-.233.009c-1.275.055-2.798.284-4.319.56-3.074.572-6.211 1.35-9.311 2.142-3.147.814-6.248 1.617-9.294 2.406l-.345.086c-.187.049-.376.08-.564.121l-1.127.231c-.747.134-1.496.097-2.226-.035-1.458-.265-2.814-1.003-3.82-2.072-.515-.52-.91-1.164-1.298-1.825l-.676-1.137c-.389-.658-.775-1.312-1.16-1.962-1.531-2.608-3.03-5.161-4.492-7.652-5.824-9.979-10.968-19.027-15.181-26.69-8.426-15.326-13.13-25.112-12.116-25.726 1.015-.614 7.556 8.061 17.311 22.582 4.878 7.26 10.559 15.982 16.755 25.736 1.542 2.442 3.124 4.945 4.739 7.501.402.64.806 1.284 1.212 1.931l.519.825c.005-.001.018.013.027.018.021.013.046.014.068.009.011-.003.021-.008.029-.015l.012-.009.006-.004.225-.061c5.989-1.597 12.243-3.525 19.156-4.848 1.758-.313 3.518-.598 5.533-.684l.384-.012.458-.004c.41-.012.816.035 1.221.065.409.021.809.071 1.199.157.399.061.783.153 1.152.285 1.498.466 2.724 1.516 3.531 2.821.841 1.292 1.137 2.905 1.31 4.484l.033.896c.012.27.002.51-.003.756-.006.5-.034.973-.071 1.434-.145 1.853-.426 3.541-.742 5.18-.643 3.266-1.448 6.318-2.24 9.262-.392 1.449-.78 2.882-1.163 4.298-.173.681-.344 1.357-.515 2.03l-.109.478c-.027.122-.022.07-.031.101l-.033.083c-.03.061-.022.126.024.169l.059.076.017.02.167.135.392.315c1.09.846 2.164 1.681 3.224 2.504 2.169 1.65 4.276 3.252 6.312 4.801 4.087 3.106 7.89 6.025 11.333 8.734 6.888 5.414 12.336 9.995 15.921 13.398 3.59 3.4 5.293 5.622 4.908 6.064z" fill="#04294f"/><path d="m661.391 315.861c-.593-.008-1.163-.567-1.686-1.533-.256-.483-.509-1.068-.783-1.74-.269-.671-.499-1.431-.789-2.26-.522-1.662-1.111-3.607-1.736-5.741-.344-1.061-.639-2.183-1.023-3.324-.365-1.143-.742-2.327-1.128-3.539-.417-1.202-.825-2.375-1.219-3.509-.376-1.144-.813-2.219-1.174-3.273-.779-2.083-1.474-3.992-2.052-5.636-.265-.837-.537-1.583-.724-2.281-.183-.702-.332-1.322-.416-1.862-.16-1.086-.039-1.876.431-2.237s1.248-.257 2.275.274c.517.262 1.09.635 1.684 1.129.598.49 1.268 1.067 1.912 1.778 1.336 1.391 2.712 3.223 4.019 5.4.625 1.101 1.286 2.264 1.836 3.53.59 1.251 1.089 2.593 1.577 3.975.438 1.398.843 2.772 1.121 4.126.319 1.343.487 2.671.647 3.926.259 2.525.256 4.817.021 6.731-.089.955-.28 1.818-.464 2.569-.18.751-.414 1.393-.671 1.913-.506 1.042-1.066 1.592-1.658 1.584z" fill="#04294f"/><path d="m880.877 404.628c1.17.009 2.276 4.703 2.817 12.387.512 7.666.45 18.431-1.808 30.205-.576 2.939-1.269 5.789-2.055 8.511-.776 2.725-1.694 5.311-2.646 7.74-.955 2.43-2.013 4.683-3.066 6.753-1.082 2.06-2.169 3.935-3.263 5.583-1.084 1.654-2.157 3.088-3.162 4.296-1.001 1.212-1.942 2.19-2.766 2.942-.808.763-1.547 1.266-2.095 1.564-.557.293-.96.357-1.198.179-.237-.178-.297-.589-.198-1.202.089-.619.373-1.413.73-2.426.373-1.002.866-2.188 1.428-3.558.565-1.366 1.209-2.908 1.884-4.619.686-1.705 1.385-3.588 2.113-5.608.701-2.034 1.439-4.203 2.124-6.519.681-2.316 1.376-4.751 1.99-7.311.622-2.556 1.211-5.218 1.75-7.964 2.116-11.006 3.136-21.277 4.17-28.769 1.007-7.492 2.05-12.194 3.251-12.184z" fill="#04294f"/><path d="m594.872 393.588c-.608.363-2.44-1.451-4.831-4.728-2.395-3.272-5.331-7.999-8.286-13.359-2.953-5.361-5.388-10.329-6.968-14.032-1.576-3.703-2.291-6.154-1.676-6.521.607-.362 2.439 1.447 4.841 4.715 2.403 3.265 5.36 7.984 8.315 13.349 2.957 5.365 5.375 10.346 6.944 14.052 1.564 3.708 2.276 6.157 1.661 6.524z" fill="#04294f"/><path d="m579.173 363.908c-.309.177-1.75-1.782-4.107-5.506-.293-.467-.602-.96-.926-1.478-.295-.535-.604-1.096-.927-1.683-.635-1.182-1.325-2.465-2.066-3.844-.767-1.37-1.457-2.897-2.188-4.521-.712-1.631-1.565-3.316-2.262-5.171-.698-1.857-1.43-3.802-2.192-5.829-.628-2.081-1.281-4.245-1.957-6.485-.521-2.288-1.107-4.649-1.571-7.113-.186-1.243-.374-2.505-.565-3.784-.087-.641-.205-1.282-.268-1.936-.046-.656-.092-1.316-.139-1.981-.518-5.299-.249-10.988.825-16.765 1.097-5.768 3.224-11.66 6.69-16.965 3.446-5.312 8.027-9.69 13.061-12.853 5.038-3.178 10.47-5.195 15.747-6.316 5.299-1.072 10.42-1.275 15.156-1.077 2.359.231 4.649.332 6.801.767 1.079.183 2.136.363 3.171.538 1.017.25 2.012.494 2.984.732.966.257 1.927.438 2.826.745.902.294 1.78.581 2.634.859.849.291 1.687.531 2.471.843.781.32 1.537.63 2.268.93 2.948 1.13 5.323 2.463 7.291 3.461 1.938 1.063 3.354 2.048 4.313 2.705.949.676 1.403 1.104 1.317 1.26-.086.155-.707.032-1.802-.342-1.104-.355-2.646-1.041-4.673-1.804-2.054-.699-4.483-1.734-7.425-2.571-.727-.229-1.479-.466-2.255-.711-.777-.241-1.601-.408-2.435-.628-.835-.21-1.694-.427-2.576-.649-.877-.237-1.806-.35-2.74-.54-.936-.174-1.894-.354-2.874-.536-.988-.115-1.997-.232-3.027-.352-2.052-.316-4.207-.304-6.422-.437-4.435-.003-9.163.344-13.973 1.442-4.787 1.146-9.625 3.06-14.059 5.934-4.432 2.864-8.419 6.724-11.462 11.411-3.059 4.68-4.997 9.914-6.059 15.144-1.037 5.237-1.405 10.478-1.038 15.462.026.624.053 1.244.079 1.86.042.615.139 1.225.204 1.831.143 1.214.284 2.411.423 3.592.365 2.352.844 4.624 1.25 6.83.554 2.182 1.088 4.289 1.602 6.314.631 2 1.237 3.92 1.815 5.752.567 1.839 1.291 3.53 1.869 5.17.597 1.633 1.151 3.18 1.782 4.583.592 1.42 1.143 2.743 1.65 3.96.25.612.488 1.198.716 1.756.25.548.488 1.07.714 1.564 1.788 3.964 2.638 6.256 2.329 6.432z" fill="#04294f"/><path d="m508.549 419.389c-.147.101-.661-.352-1.508-1.307-.841-.959-2.041-2.402-3.479-4.336-1.461-1.919-3.177-4.319-5.121-7.142-1.931-2.832-4.068-6.1-6.343-9.773-2.244-3.692-4.656-7.771-7.041-12.271-2.427-4.477-4.804-9.386-7.123-14.638-2.337-5.246-4.462-10.908-6.395-16.871-1.925-5.965-3.581-12.269-4.752-18.837-1.189-6.563-1.878-13.061-2.111-19.355-.208-6.299.131-12.382.753-18.132.392-2.867.731-5.667 1.297-8.35.273-1.342.466-2.679.799-3.965.314-1.289.624-2.558.928-3.806.281-1.252.653-2.458 1.011-3.644.357-1.185.707-2.348 1.05-3.487.753-2.257 1.557-4.395 2.288-6.443.82-2.017 1.637-3.92 2.398-5.723.789-1.791 1.64-3.431 2.386-4.983.733-1.56 1.521-2.957 2.25-4.24.731-1.279 1.4-2.447 2.001-3.499 2.607-4.087 4.21-6.228 4.512-6.049.311.183-.705 2.664-2.738 6.984-.472 1.097-.998 2.316-1.573 3.65-.588 1.326-1.236 2.76-1.829 4.344-.607 1.578-1.321 3.235-1.975 5.032-.632 1.803-1.3 3.708-2.001 5.709-.601 2.032-1.28 4.144-1.911 6.362-.285 1.118-.576 2.258-.872 3.42-.3 1.16-.615 2.339-.842 3.561-.252 1.214-.508 2.45-.768 3.705-.281 1.25-.424 2.548-.65 3.848-.471 2.599-.724 5.306-1.039 8.071-.469 5.546-.697 11.391-.43 17.443.292 6.049.989 12.293 2.136 18.623 1.128 6.333 2.695 12.438 4.499 18.249 1.812 5.808 3.783 11.354 5.95 16.531 2.148 5.183 4.332 10.061 6.556 14.546 2.18 4.506 4.375 8.63 6.391 12.393 2.048 3.745 3.946 7.114 5.631 10.067 1.698 2.95 3.16 5.492 4.355 7.569 1.175 2.094 2.104 3.713 2.665 4.858.564 1.137.792 1.786.645 1.886z" fill="#04294f"/></svg></g><!--ITEM: Illustration component 6--><g transform="translate(152.0 169.0) rotate(-25.529170109945856 162.5 91.5)  scale(0.8125 0.8159516314573877)"><svg width="400.0" height="224.278" viewBox="0.0 0.0 400.0 224.278"><g fill="#fff"><path d="m350 157s-110.917 3-150 3c-35.917 0-150-3-150-3a50 50 0 0 1 -50-50v-53a50 50 0 0 1 50-50s129.417-4 155-4c49.417 0 145 4 145 4a50 50 0 0 1 50 50v53a50 50 0 0 1 -50 50z"/><path d="m38 114s38.141 62.224-16.9 101.4a4.884 4.884 0 0 0 4.136 8.684c42.314-11.592 111.433-40.892 123.764-110.084z"/></g></svg></g><!--ITEM: Text 7--><g transform="translate(123.0 130.0) rotate(-25.508209724813607 205.0 95.0)  scale(1.0 1.0)"><svg width="410.0" height="190.0" viewBox="0.0 0.0 410.0 190.0"><g transform="translate(50 50)">
      <path fill="#C00000" stroke="#C00000" d="M4.50 61.45L4.50 26.55Q6.60 26.30 9.03 26.18Q11.45 26.05 14.15 26.05L14.15 26.05Q17.40 26.05 19.95 26.85Q22.50 27.65 24.25 29.05Q26 30.45 26.90 32.42Q27.80 34.40 27.80 36.70L27.80 36.70Q27.80 39.50 26.73 41.67Q25.65 43.85 23.73 45.35Q21.80 46.85 19.10 47.63Q16.40 48.40 13.15 48.40L13.15 48.40Q11.05 48.40 9.25 48.25L9.25 48.25L9.25 61.45L4.50 61.45ZM13.75 44.45L13.75 44.45Q18.25 44.45 20.68 42.48Q23.10 40.50 23.10 37.10L23.10 37.10Q23.10 33.85 20.78 31.95Q18.45 30.05 14.05 30.05L14.05 30.05Q12.70 30.05 11.50 30.10Q10.30 30.15 9.25 30.25L9.25 30.25L9.25 44.20Q10.05 44.30 11.18 44.38Q12.30 44.45 13.75 44.45ZM30.55 48.60L30.55 48.60Q30.55 45.70 31.45 43.17Q32.35 40.65 33.98 38.80Q35.60 36.95 37.88 35.90Q40.15 34.85 42.85 34.85L42.85 34.85Q45.10 34.85 46.92 35.63Q48.75 36.40 50.10 37.55L50.10 37.55L50.10 35.45L54.20 35.45L54.20 55.15Q54.20 57.05 55.13 57.63Q56.05 58.20 57.15 58.20L57.15 58.20L56.20 61.70Q51.40 61.70 50.40 57.80L50.40 57.80Q49.80 58.60 49.03 59.38Q48.25 60.15 47.25 60.75Q46.25 61.35 45 61.70Q43.75 62.05 42.25 62.05L42.25 62.05Q39.80 62.05 37.67 61.10Q35.55 60.15 33.98 58.40Q32.40 56.65 31.48 54.18Q30.55 51.70 30.55 48.60ZM43.25 58.05L43.25 58.05Q45.15 58.05 46.85 57.15Q48.55 56.25 49.70 54.80L49.70 54.80L49.70 40.85Q48.35 39.90 46.73 39.33Q45.10 38.75 43.30 38.75L43.30 38.75Q41.50 38.75 40 39.45Q38.50 40.15 37.42 41.42Q36.35 42.70 35.75 44.50Q35.15 46.30 35.15 48.45L35.15 48.45Q35.15 50.55 35.75 52.33Q36.35 54.10 37.45 55.38Q38.55 56.65 40.03 57.35Q41.50 58.05 43.25 58.05ZM60.90 59.35L62.80 55.60Q64.10 56.75 66.08 57.45Q68.05 58.15 70.30 58.15L70.30 58.15Q73.10 58.15 74.53 57.23Q75.95 56.30 75.95 54.85L75.95 54.85Q75.95 54.10 75.68 53.45Q75.40 52.80 74.68 52.20Q73.95 51.60 72.70 51.03Q71.45 50.45 69.45 49.75L69.45 49.75Q65.75 48.50 63.95 46.78Q62.15 45.05 62.15 42L62.15 42Q62.15 40.50 62.83 39.20Q63.50 37.90 64.78 36.92Q66.05 35.95 67.88 35.40Q69.70 34.85 72.05 34.85L72.05 34.85Q74.60 34.85 76.53 35.38Q78.45 35.90 80 36.70L80 36.70L78.75 40.40Q77.40 39.60 75.68 39.10Q73.95 38.60 71.85 38.60L71.85 38.60Q69.25 38.60 67.90 39.65Q66.55 40.70 66.55 41.95L66.55 41.95Q66.55 42.55 66.78 43.05Q67 43.55 67.60 44Q68.20 44.45 69.20 44.90Q70.20 45.35 71.70 45.85L71.70 45.85Q74.15 46.70 75.85 47.58Q77.55 48.45 78.60 49.50Q79.65 50.55 80.10 51.78Q80.55 53 80.55 54.50L80.55 54.50Q80.55 56.25 79.80 57.65Q79.05 59.05 77.70 60.03Q76.35 61 74.43 61.53Q72.50 62.05 70.15 62.05L70.15 62.05Q67.15 62.05 64.80 61.30Q62.45 60.55 60.90 59.35L60.90 59.35ZM99.30 59.35L101.20 55.60Q102.50 56.75 104.48 57.45Q106.45 58.15 108.70 58.15L108.70 58.15Q111.50 58.15 112.93 57.23Q114.35 56.30 114.35 54.85L114.35 54.85Q114.35 54.10 114.08 53.45Q113.80 52.80 113.08 52.20Q112.35 51.60 111.10 51.03Q109.85 50.45 107.85 49.75L107.85 49.75Q104.15 48.50 102.35 46.78Q100.55 45.05 100.55 42L100.55 42Q100.55 40.50 101.23 39.20Q101.90 37.90 103.18 36.92Q104.45 35.95 106.28 35.40Q108.10 34.85 110.45 34.85L110.45 34.85Q113.00 34.85 114.93 35.38Q116.85 35.90 118.40 36.70L118.40 36.70L117.15 40.40Q115.80 39.60 114.08 39.10Q112.35 38.60 110.25 38.60L110.25 38.60Q107.65 38.60 106.30 39.65Q104.95 40.70 104.95 41.95L104.95 41.95Q104.95 42.55 105.18 43.05Q105.40 43.55 106.00 44Q106.60 44.45 107.60 44.90Q108.60 45.35 110.10 45.85L110.10 45.85Q112.55 46.70 114.25 47.58Q115.95 48.45 117.00 49.50Q118.05 50.55 118.50 51.78Q118.95 53 118.95 54.50L118.95 54.50Q118.95 56.25 118.20 57.65Q117.45 59.05 116.10 60.03Q114.75 61 112.83 61.53Q110.90 62.05 108.55 62.05L108.55 62.05Q105.55 62.05 103.20 61.30Q100.85 60.55 99.30 59.35L99.30 59.35ZM129.45 35.45L129.45 61.45L124.95 61.45L124.95 35.45L129.45 35.45ZM127.20 31L127.20 31Q125.90 31 124.98 30.08Q124.05 29.15 124.05 27.85L124.05 27.85Q124.05 26.40 124.90 25.55Q125.75 24.70 127.20 24.70L127.20 24.70Q128.50 24.70 129.43 25.63Q130.35 26.55 130.35 27.85L130.35 27.85Q130.35 29.30 129.50 30.15Q128.65 31 127.20 31ZM159.40 61.45L148.95 36.65L153.05 34.95L161.90 56.35L170.75 34.95L174.60 36.65L164.10 61.45L159.40 61.45ZM183.60 35.45L183.60 61.45L179.10 61.45L179.10 35.45L183.60 35.45ZM181.35 31L181.35 31Q180.05 31 179.13 30.08Q178.20 29.15 178.20 27.85L178.20 27.85Q178.20 26.40 179.05 25.55Q179.90 24.70 181.35 24.70L181.35 24.70Q182.65 24.70 183.58 25.63Q184.50 26.55 184.50 27.85L184.50 27.85Q184.50 29.30 183.65 30.15Q182.80 31 181.35 31ZM192.70 36.40L193.65 28.20L197.10 28.20L197.10 36.40L204.30 36.40L204.30 40.30L197.10 40.30L197.10 52.85Q197.10 54.30 197.43 55.30Q197.75 56.30 198.30 56.90Q198.85 57.50 199.63 57.78Q200.40 58.05 201.25 58.05L201.25 58.05Q202.50 58.05 203.60 57.65Q204.70 57.25 205.70 56.70L205.70 56.70L206.95 60.30Q205.95 60.90 204.25 61.48Q202.55 62.05 200.70 62.05L200.70 62.05Q196.95 62.05 194.78 59.60Q192.60 57.15 192.60 52.50L192.60 52.50L192.60 40.30L188.10 40.30L188.10 36.40L192.70 36.40ZM231.50 50.30L213.30 50.30Q213.75 53.95 215.85 56Q217.95 58.05 221.40 58.05L221.40 58.05Q223.65 58.05 225.45 57.58Q227.25 57.10 228.90 56.35L228.90 56.35L229.95 60.20Q228.15 61.05 225.90 61.55Q223.65 62.05 220.85 62.05L220.85 62.05Q218.05 62.05 215.80 61.13Q213.55 60.20 211.98 58.48Q210.40 56.75 209.55 54.23Q208.70 51.70 208.70 48.45L208.70 48.45Q208.70 45.55 209.55 43.05Q210.40 40.55 211.95 38.73Q213.50 36.90 215.65 35.88Q217.80 34.85 220.45 34.85L220.45 34.85Q223.25 34.85 225.35 35.80Q227.45 36.75 228.85 38.40Q230.25 40.05 230.95 42.25Q231.65 44.45 231.65 46.90L231.65 46.90Q231.65 48.65 231.50 50.30L231.50 50.30ZM220.35 38.75L220.35 38.75Q217.40 38.75 215.53 40.75Q213.65 42.75 213.25 46.65L213.25 46.65L227.50 46.65Q227.50 42.85 225.60 40.80Q223.70 38.75 220.35 38.75ZM253.95 37.45L253.95 25L258.95 25L258.95 37.45L258.30 51.10L254.60 51.10L253.95 37.45ZM253.15 58.70L253.15 58.70Q253.15 57.15 254.03 56.25Q254.90 55.35 256.50 55.35L256.50 55.35Q257.80 55.35 258.83 56.35Q259.85 57.35 259.85 58.70L259.85 58.70Q259.85 60.20 258.90 61.13Q257.95 62.05 256.50 62.05L256.50 62.05Q255.15 62.05 254.15 61.05Q253.15 60.05 253.15 58.70Z" stroke-width="0"/>
    </g>
  </svg></g></svg>